<svg width="96" height="96" viewBox="0 0 96 96" fill="none" xmlns="http://www.w3.org/2000/svg">
<path d="M93.5203 20.8327L85.5521 17.4258C81.0441 15.4993 75.9593 15.9054 71.6874 17.7532L75.1078 8.76332C75.8544 6.77076 75.6838 4.66138 74.6227 3.11451C73.7186 1.81776 72.2634 1.04395 70.7044 1.04395C69.5902 1.04395 68.5028 1.43732 67.5591 2.17101L54.5848 12.2098C54.5454 12.2491 54.4931 12.2758 54.4538 12.3273H39.4879C39.4485 12.2758 39.3962 12.2491 39.3568 12.2098L26.3961 2.17101C25.4394 1.43713 24.3512 1.04395 23.2378 1.04395C21.678 1.04395 20.2236 1.81776 19.3194 3.11451C18.2576 4.66138 18.087 6.77076 18.8473 8.76332L21.9276 16.8883C18.2183 15.8266 14.1557 15.8529 10.4601 17.4256L2.49207 20.8325C-0.076497 21.9329 -0.770809 24.6592 0.933003 26.9261L6.24075 34.0029C9.50363 38.354 14.6409 40.6475 19.6204 40.9751L21.7046 63.9219C20.6428 65.1937 19.8825 66.6875 19.5158 68.3126L18.6508 72.1651L18.3621 73.4105C17.733 76.1626 18.2318 78.9933 19.7779 81.3914C20.5509 82.6102 21.5734 83.672 22.7655 84.5238C22.7261 85.2704 22.8574 86.0178 23.1589 86.7119L25.0854 91.1283C26.3171 93.9585 29.7641 94.9552 32.5941 94.9552H61.3598C64.1777 94.9552 67.6376 93.9585 68.8691 91.1283L70.7957 86.7119C71.0968 86.0178 71.2286 85.2704 71.1891 84.536C72.3548 83.6848 73.3772 82.6229 74.1639 81.3913C75.7101 78.9931 76.2081 76.1624 75.5919 73.4233L75.3039 72.1522L74.4126 68.3126C74.0456 66.6877 73.2984 65.2196 72.2501 63.9485L74.3336 41.0015C79.9035 41.2501 86.0368 38.9574 89.7589 34.0029L95.0661 26.9261C96.7703 24.6594 96.0761 21.9331 93.5203 20.8327ZM65.2656 89.5559C64.8857 90.4079 63.2608 91.0241 61.3599 91.0241H32.5944C30.6943 91.0241 29.0694 90.4079 28.6896 89.5559L27.3784 86.5683C28.2962 86.7783 29.2526 86.8829 30.2228 86.8829H63.7322C64.7023 86.8829 65.6588 86.7783 66.5631 86.5813L65.2656 89.5559ZM30.6549 82.9507H30.2229C28.8071 82.9507 27.4967 82.6368 26.3438 82.0865C25.6883 81.7843 25.0986 81.4051 24.5741 80.9589C23.9844 80.4609 23.4735 79.8978 23.0803 79.2688L22.7136 75.1927L22.5036 72.9129L23.3554 69.1908C24.1155 65.8104 27.4838 63.3858 31.3757 63.3858H35.7133H58.2411H62.5659C66.4716 63.3858 69.8132 65.8104 70.5863 69.1908L71.4381 72.9129L71.2418 75.167L70.875 79.2429C70.8613 79.2558 70.8613 79.2688 70.8484 79.2815C70.455 79.8976 69.957 80.4609 69.3675 80.9459C68.8436 81.4053 68.2541 81.7843 67.5986 82.0865C66.4586 82.6368 65.1474 82.9507 63.7324 82.9507H63.2867H30.6549ZM43.839 43.8719V15.2105H50.1034V43.8721C50.1034 49.4681 51.7808 54.9191 54.9131 59.4545H39.0422C42.1609 54.9189 43.839 49.4679 43.839 43.8719ZM70.7044 4.97526C71.4774 4.97526 71.9231 6.0637 71.4251 7.37413L68.1752 15.9054C65.8028 14.3456 63.1296 13.2845 60.3253 12.7471L69.9572 5.27695C70.2323 5.0677 70.4816 4.97526 70.7044 4.97526ZM64.6106 36.965C64.6106 36.965 64.6236 36.965 64.6236 36.9787C65.3443 37.2933 65.9469 37.817 66.3532 38.4854C66.7071 39.0622 66.9171 39.7436 66.9171 40.4643V42.3251C66.9171 44.4223 65.2132 46.1253 63.1168 46.1253H61.5964C59.4863 46.1253 57.7824 44.4223 57.7824 42.3251V40.4643C57.7824 38.3671 59.4863 36.6641 61.5964 36.6641H63.1168C63.6407 36.6643 64.1514 36.7687 64.6106 36.965ZM36.159 42.3253C36.159 44.4224 34.4559 46.1255 32.3588 46.1255H30.8383C28.7419 46.1255 27.0381 44.4224 27.0381 42.3253V40.4645C27.0381 40.2682 27.051 40.0711 27.0904 39.8748C27.3654 38.0534 28.9382 36.6643 30.8383 36.6643H31.6509H32.3588C34.4559 36.6643 36.159 38.3673 36.159 40.4645V42.3253ZM25.767 15.9054L22.5171 7.37413C22.0191 6.0637 22.4648 4.97526 23.2378 4.97526C23.4608 4.97526 23.7229 5.0677 23.9844 5.27695L33.6298 12.7471C30.8126 13.2845 28.1387 14.3456 25.767 15.9054ZM75.5136 27.923C75.54 27.6084 75.5537 27.2939 75.5537 26.9793C75.5537 25.7083 75.3173 24.4364 74.8459 23.2573C76.4049 22.6411 78.7119 22.1831 81.1883 23.2314L84.3206 24.5675C85.9327 25.2616 86.3784 26.9921 85.3037 28.4336L83.22 31.1992C81.6604 33.2827 79.5769 34.0816 78.1086 34.3833C77.0338 34.6055 75.9334 34.6454 74.9237 34.4879L75.5136 27.923ZM18.4281 27.923L19.0307 34.5404C18.6508 34.5146 18.2706 34.4624 17.8907 34.3835C16.4233 34.0818 14.3528 33.2829 12.7929 31.1994L10.7094 28.4338C9.621 26.9923 10.0667 25.2618 11.6916 24.5677L14.8112 23.2316C16.4361 22.5365 17.9953 22.4971 19.3193 22.7336C18.7031 24.0704 18.3885 25.5119 18.3885 26.9795C18.3887 27.2939 18.4016 27.6086 18.4281 27.923Z" fill="#4E301B"/>
<path d="M31.9789 39.0229H31.2187C30.1699 39.0229 29.3186 39.8748 29.3186 40.9358V41.8536C29.3186 42.9147 30.1697 43.7538 31.2187 43.7538H31.9789C33.027 43.7538 33.879 42.9149 33.879 41.8536V40.9358C33.8792 39.8748 33.0272 39.0229 31.9789 39.0229ZM30.6686 40.9881C30.6686 40.4643 31.1006 40.0452 31.6252 40.0452H32.0049C32.2408 40.0452 32.4506 40.124 32.6076 40.268L30.8651 42.0106C30.7341 41.8666 30.6688 41.6695 30.6688 41.4603V40.9881H30.6686Z" fill="#4E301B"/>
<path d="M60.0761 40.9358V41.8536C60.0761 42.9147 60.9152 43.7538 61.9763 43.7538H62.7364C63.7845 43.7538 64.6365 42.9149 64.6365 41.8536V40.9358C64.6365 39.8748 63.7847 39.0229 62.7364 39.0229H61.9763C60.9152 39.0229 60.0761 39.8748 60.0761 40.9358ZM61.1621 40.9881C61.1621 40.4643 61.5951 40.0452 62.1195 40.0452H62.4994C62.7351 40.0452 62.9451 40.124 63.1026 40.268L61.3594 42.0106C61.2283 41.8666 61.1623 41.6695 61.1623 41.4603V40.9881H61.1621Z" fill="#4E301B"/>
<path d="M40.89 72.1266L37.0108 70.6585L36.8934 67.4213C36.8797 67.028 36.5917 66.7006 36.1986 66.6218L36.0939 66.6089L35.5832 66.6353C35.1504 66.6483 34.7835 66.9756 34.7312 67.4084L34.0104 74.3011C33.9576 74.7338 34.2332 75.1272 34.6524 75.2318L40.5232 76.6999C40.7854 76.7523 41.0606 76.6733 41.2569 76.5031C41.4669 76.3197 41.5723 76.0709 41.5586 75.7958L41.31 72.8082C41.2961 72.5195 41.1394 72.2699 40.89 72.1266Z" fill="#4E301B"/>
<path d="M58.3594 66.6358L57.8616 66.6094L57.7434 66.6223C57.3508 66.7011 57.0621 67.0284 57.0491 67.4218L56.9437 70.659L53.0518 72.1271C52.8032 72.2704 52.6584 72.5198 52.6326 72.8085L52.3969 75.7961C52.3702 76.0712 52.4749 76.32 52.6849 76.5034C52.8812 76.6738 53.1562 76.7527 53.4186 76.7002L59.2894 75.2321C59.7094 75.1275 59.9844 74.7341 59.9451 74.3014L59.2114 67.4087C59.1589 66.9761 58.7921 66.6487 58.3594 66.6358Z" fill="#4E301B"/>
</svg>
