<svg width="300" height="100" viewBox="0 0 300 100" fill="none" xmlns="http://www.w3.org/2000/svg">
<path d="M36.56 50.48C34.9333 51.5733 33.0933 52.5733 31.04 53.48C28.9867 54.36 27.0133 55.0667 25.12 55.6C24.2933 55.84 23.4267 56.0267 22.52 56.16C21.6133 56.32 20.7333 56.4667 19.88 56.6C19.56 56.6533 19.24 56.7067 18.92 56.76C18.6267 56.8133 18.32 56.84 18 56.84C17.8933 56.84 17.7467 56.8267 17.56 56.8C17.3733 56.7733 17.28 56.68 17.28 56.52C17.28 56.3333 17.4 56.1867 17.64 56.08C17.9067 55.9733 18.1733 55.8933 18.44 55.84C18.7067 55.76 18.9733 55.6667 19.24 55.56C19.5867 55.4267 19.92 55.2933 20.24 55.16C20.56 55.0267 20.8933 54.8933 21.24 54.76C23.4 53.88 25.48 52.92 27.48 51.88C29.48 50.8133 31.3333 49.4667 33.04 47.84C33.6533 48.2667 34.24 48.7067 34.8 49.16C35.3867 49.5867 35.9733 50.0267 36.56 50.48ZM41.56 53.68C41.56 53.7867 41.4933 53.8933 41.36 54C41.2267 54.08 41.12 54.1467 41.04 54.2C37.7333 55.9333 34.36 57.32 30.92 58.36C27.48 59.4267 23.88 59.96 20.12 59.96C20.0133 59.96 19.84 59.96 19.6 59.96C19.36 59.96 19.1333 59.92 18.92 59.84C18.7067 59.7867 18.6 59.68 18.6 59.52C18.6 59.4133 18.6533 59.32 18.76 59.24C18.8667 59.16 18.96 59.1067 19.04 59.08C19.2533 59 19.4667 58.9333 19.68 58.88C19.8933 58.8533 20.0933 58.8133 20.28 58.76C20.6533 58.6533 21.04 58.5467 21.44 58.44C21.84 58.3333 22.2267 58.2267 22.6 58.12C24.2267 57.6133 25.96 57 27.8 56.28C29.64 55.56 31.4267 54.7467 33.16 53.84C34.92 52.9333 36.44 51.9333 37.72 50.84C37.8267 50.92 38.08 51.0933 38.48 51.36C38.88 51.6267 39.32 51.9333 39.8 52.28C40.28 52.6 40.6933 52.8933 41.04 53.16C41.3867 53.4267 41.56 53.6 41.56 53.68ZM32.52 47.04C31.64 47.6533 30.5867 48.3467 29.36 49.12C28.16 49.8933 26.88 50.64 25.52 51.36C24.16 52.0533 22.8133 52.64 21.48 53.12C20.1733 53.5733 18.9867 53.8 17.92 53.8C17.6533 53.8 17.52 53.6933 17.52 53.48C17.52 53.3733 17.5733 53.2933 17.68 53.24C18.24 52.9733 18.7867 52.7067 19.32 52.44C19.8533 52.1733 20.3733 51.88 20.88 51.56C22.4267 50.5733 23.88 49.5067 25.24 48.36C26.6267 47.2133 27.9467 45.9867 29.2 44.68L32.52 47.04ZM49.64 50.6C49.64 51.1867 49.4 51.6133 48.92 51.88C48.44 52.1467 47.9467 52.28 47.44 52.28C45.9467 52.28 44.4133 52.0267 42.84 51.52C41.2667 50.9867 39.72 50.28 38.2 49.4C36.7067 48.52 35.32 47.5467 34.04 46.48C32.76 45.3867 31.6533 44.2933 30.72 43.2C30.2933 43.3067 29.8133 43.4533 29.28 43.64C28.7467 43.8267 28.2933 44.04 27.92 44.28C27.5733 44.4933 27.24 44.7467 26.92 45.04C26.6267 45.3067 26.32 45.5733 26 45.84C23.8667 47.4933 21.7333 48.8933 19.6 50.04C17.4667 51.16 15.08 52.0533 12.44 52.72C12.2533 52.7733 12.0533 52.8133 11.84 52.84C11.6267 52.8667 11.4133 52.88 11.2 52.88C11.0933 52.88 10.9867 52.8533 10.88 52.8C10.8 52.72 10.76 52.6267 10.76 52.52C10.76 52.36 10.7867 52.2533 10.84 52.2C10.92 52.1467 11.0133 52.0933 11.12 52.04C12.88 50.9733 14.5467 49.9067 16.12 48.84C17.6933 47.7733 19.1733 46.6 20.56 45.32C21.9733 44.04 23.3067 42.56 24.56 40.88V39.56C23.4933 40.1733 22.4 40.76 21.28 41.32C20.16 41.8533 19.0133 42.2667 17.84 42.56C17.3333 42.6667 16.8133 42.7867 16.28 42.92C15.7467 43.0267 15.2133 43.08 14.68 43.08C14.6 43.08 14.4933 43.0533 14.36 43C14.2533 42.9467 14.2 42.8667 14.2 42.76C14.2 42.6 14.2667 42.48 14.4 42.4C14.5333 42.2933 14.6533 42.2133 14.76 42.16C15.2133 41.92 15.6667 41.68 16.12 41.44C16.6 41.2 17.0533 40.9333 17.48 40.64C18.5733 39.8933 19.6133 39.0667 20.6 38.16C21.5867 37.2533 22.4933 36.2933 23.32 35.28L24.56 36.04V32.64H21.48C21.6133 32.6933 21.8667 32.8267 22.24 33.04C22.64 33.2267 23.0133 33.4133 23.36 33.6C23.7333 33.7867 23.92 33.9333 23.92 34.04C23.92 34.12 23.88 34.1867 23.8 34.24C22.5733 35.04 21.1867 35.72 19.64 36.28C18.12 36.84 16.6533 37.28 15.24 37.6C15 37.6533 14.7467 37.72 14.48 37.8C14.2133 37.8533 13.9467 37.88 13.68 37.88C13.6 37.88 13.4933 37.8533 13.36 37.8C13.2533 37.7467 13.2 37.6667 13.2 37.56C13.2 37.4 13.2533 37.28 13.36 37.2C13.4667 37.12 13.5733 37.0533 13.68 37C13.92 36.8667 14.16 36.7467 14.4 36.64C14.64 36.5067 14.88 36.36 15.12 36.2C15.8933 35.6933 16.6267 35.1467 17.32 34.56C18.0133 33.9467 18.68 33.3067 19.32 32.64H14.44V30.88H28.96V39.2C29.28 39.3067 29.6 39.4133 29.92 39.52C30.24 39.6 30.56 39.7067 30.88 39.84C30.9867 39.8667 31.0667 39.8933 31.12 39.92C31.2 39.9467 31.24 40.0267 31.24 40.16C31.24 40.2933 31.1333 40.5067 30.92 40.8C30.7333 41.0933 30.52 41.3867 30.28 41.68C30.0667 41.9467 29.9067 42.1333 29.8 42.24C29.96 42.16 30.2533 42.04 30.68 41.88C31.1067 41.72 31.56 41.5467 32.04 41.36C32.5467 41.1467 33 40.9733 33.4 40.84C33.8267 40.7067 34.1067 40.64 34.24 40.64C34.3733 40.64 34.52 40.6933 34.68 40.8C34.7067 40.8 34.8133 40.9467 35 41.24C35.2133 41.5067 35.4267 41.7867 35.64 42.08C35.8533 42.3733 35.9733 42.5467 36 42.6C36.7733 43.6133 37.7067 44.6133 38.8 45.6C39.8933 46.5867 41.0533 47.4933 42.28 48.32C43.5067 49.1467 44.6933 49.84 45.84 50.4C46.0267 49.8667 46.28 49.48 46.6 49.24C46.92 48.9733 47.36 48.84 47.92 48.84C48.32 48.84 48.7067 49.04 49.08 49.44C49.4533 49.8133 49.64 50.2 49.64 50.6ZM45.12 41.36H40.52V38.52C39.6933 38.7867 38.7867 39.0667 37.8 39.36C36.8133 39.6533 35.8267 39.9067 34.84 40.12C33.8533 40.3067 32.9333 40.4 32.08 40.4C31.84 40.4 31.72 40.3067 31.72 40.12C31.72 39.9867 31.8267 39.8667 32.04 39.76C32.2533 39.6267 32.4133 39.5333 32.52 39.48C33.9333 38.7867 35.24 38.08 36.44 37.36C37.6667 36.6133 38.84 35.6667 39.96 34.52L40.52 34.88V32.6H37.68C37.7867 32.6533 38 32.76 38.32 32.92C38.64 33.08 38.9467 33.2533 39.24 33.44C39.5333 33.6 39.68 33.7333 39.68 33.84C39.68 33.92 39.64 33.9867 39.56 34.04C38.7867 34.52 37.8133 35.0267 36.64 35.56C35.4933 36.0667 34.32 36.4933 33.12 36.84C31.92 37.1867 30.8533 37.36 29.92 37.36C29.84 37.36 29.7333 37.3467 29.6 37.32C29.4933 37.2667 29.44 37.1867 29.44 37.08C29.44 36.9467 29.4933 36.84 29.6 36.76C29.7067 36.68 29.8133 36.6133 29.92 36.56C30.9067 36.0267 31.8133 35.44 32.64 34.8C33.4667 34.1333 34.2667 33.4 35.04 32.6H30.36V30.88H45.12V41.36ZM47.56 25.92C47.56 26.6667 47.24 27.2 46.6 27.52C45.96 27.8133 45.3333 27.96 44.72 27.96H36.04C35.88 28.2 35.6 28.5333 35.2 28.96C34.8 29.36 34.3733 29.72 33.92 30.04C33.4667 30.36 33.08 30.52 32.76 30.52C32.6267 30.52 32.4933 30.4667 32.36 30.36C32.2267 30.2533 32.16 30.12 32.16 29.96C32.16 29.6133 32.16 29.28 32.16 28.96C32.16 28.64 32.1733 28.3067 32.2 27.96H26.28L26.4 29.92L21.68 30.16L21.56 27.96H12.64V26.08H21.48L21.28 22.6L26 22.44L26.2 26.08H32.4C32.48 25.44 32.5467 24.8133 32.6 24.2C32.6533 23.56 32.72 22.92 32.8 22.28L37.92 22.96C38.0533 22.9867 38.16 23.0267 38.24 23.08C38.32 23.1067 38.36 23.1867 38.36 23.32C38.36 23.5333 38.28 23.8267 38.12 24.2C37.96 24.5467 37.7733 24.8933 37.56 25.24C37.3733 25.5867 37.2133 25.8667 37.08 26.08H42.4C42.4533 25.4133 42.7067 24.8267 43.16 24.32C43.6133 23.7867 44.1867 23.52 44.88 23.52C45.6533 23.52 46.2933 23.72 46.8 24.12C47.3067 24.52 47.56 25.12 47.56 25.92ZM68.8 34.8C68.8 35.36 68.5467 35.7867 68.04 36.08C67.56 36.3467 67.08 36.48 66.6 36.48H63.24V39.8C63.6933 39.5867 64.1467 39.3733 64.6 39.16C65.0533 38.9467 65.5067 38.7467 65.96 38.56C66.0133 38.72 66.1333 39.0533 66.32 39.56C66.5333 40.0667 66.76 40.6533 67 41.32C67.2667 41.96 67.52 42.6 67.76 43.24C68.0267 43.8533 68.24 44.3733 68.4 44.8C68.56 45.2267 68.64 45.4533 68.64 45.48C68.64 45.6667 68.56 45.8133 68.4 45.92C68.2667 46 68.12 46.04 67.96 46.04C67.6667 46.04 67.24 45.8533 66.68 45.48C66.1467 45.08 65.6133 44.64 65.08 44.16C64.7067 43.8133 64.3467 43.48 64 43.16C63.6533 42.8133 63.4 42.5467 63.24 42.36V58.8H58.56V43.48C58.1067 44.4667 57.4533 45.5467 56.6 46.72C55.7467 47.8933 54.8133 48.9733 53.8 49.96C52.7867 50.9467 51.76 51.6533 50.72 52.08C50.6933 52.1067 50.6267 52.12 50.52 52.12C50.4667 52.12 50.4 52.1067 50.32 52.08C50.24 52.0267 50.2 51.96 50.2 51.88C50.2 51.8267 50.24 51.7467 50.32 51.64C50.4 51.5067 50.4933 51.3467 50.6 51.16C50.76 50.84 50.9333 50.5067 51.12 50.16C51.3333 49.7867 51.4667 49.5467 51.52 49.44C52.3733 47.7067 53.0933 45.92 53.68 44.08C54.2667 42.24 54.72 40.3733 55.04 38.48C55.6267 38.6667 56.2133 38.8533 56.8 39.04C57.3867 39.2267 57.9733 39.4 58.56 39.56V36.48H52.08V34.72H58.56V29.56C57.4933 29.6933 56.4267 29.8133 55.36 29.92C54.2933 30 53.2133 30.04 52.12 30.04C52.0133 30.04 51.88 30.0267 51.72 30C51.56 29.9467 51.48 29.84 51.48 29.68C51.48 29.4667 51.64 29.32 51.96 29.24C52.1733 29.1867 52.4533 29.0933 52.8 28.96C53.1733 28.8267 53.4267 28.7467 53.56 28.72C55.5333 28.0267 57.4267 27.2133 59.24 26.28C61.0533 25.3467 62.8133 24.3067 64.52 23.16C64.8667 23.3733 65.2933 23.6667 65.8 24.04C66.3333 24.4133 66.84 24.7867 67.32 25.16C67.8 25.5067 68.1467 25.76 68.36 25.92C68.4933 26.0267 68.56 26.16 68.56 26.32C68.56 26.56 68.28 26.8133 67.72 27.08C67.32 27.2933 66.8 27.52 66.16 27.76C65.52 27.9733 64.92 28.16 64.36 28.32C63.8267 28.48 63.4533 28.5867 63.24 28.64V34.72H64.8C64.8 34.1867 65.0133 33.7467 65.44 33.4C65.8667 33.0267 66.3333 32.84 66.84 32.84C67.3733 32.84 67.8267 33.04 68.2 33.44C68.6 33.8133 68.8 34.2667 68.8 34.8ZM76.16 42.16C76.16 42.4 76.08 42.5867 75.92 42.72C75.76 42.8267 75.5733 42.88 75.36 42.88C75.2 42.88 75.0667 42.8533 74.96 42.8C74.8533 42.7467 74.7333 42.68 74.6 42.6C73.5067 41.96 72.3867 41.3467 71.24 40.76C70.12 40.1733 69.0133 39.5733 67.92 38.96C68.08 38.8 68.32 38.56 68.64 38.24C68.9867 37.8933 69.3467 37.5467 69.72 37.2C70.0933 36.8267 70.4 36.5067 70.64 36.24C71.12 35.7067 71.5467 35.44 71.92 35.44C72.16 35.44 72.4533 35.64 72.8 36.04C73.1467 36.4133 73.5067 36.8933 73.88 37.48C74.28 38.0667 74.6533 38.68 75 39.32C75.3467 39.9333 75.6267 40.5067 75.84 41.04C76.0533 41.5467 76.16 41.92 76.16 42.16ZM89.76 42.04C89.76 42.6 89.5867 43.1067 89.24 43.56C88.92 43.9867 88.4933 44.2667 87.96 44.4L82.8 45.8V59.08H78.2V46.84L67.32 49.6L66.72 47.52L78.2 44.6V24.56H82.8V43.56L84.76 43.04C84.68 42.9867 84.6267 42.88 84.6 42.72C84.5733 42.5333 84.56 42.3867 84.56 42.28C84.56 41.56 84.8267 40.96 85.36 40.48C85.8933 39.9733 86.52 39.72 87.24 39.72C87.8533 39.72 88.4267 39.9467 88.96 40.4C89.4933 40.8533 89.76 41.4 89.76 42.04ZM76.84 33.44C76.84 33.92 76.5733 34.16 76.04 34.16C75.9067 34.16 75.7733 34.1333 75.64 34.08C75.5333 34.0267 75.4133 33.9733 75.28 33.92C74.16 33.3333 73.04 32.7333 71.92 32.12C70.8267 31.48 69.7333 30.8533 68.64 30.24C68.8 30.08 69.0533 29.8133 69.4 29.44C69.7467 29.04 70.12 28.6267 70.52 28.2C70.9467 27.7733 71.3467 27.4133 71.72 27.12C72.0933 26.8 72.3733 26.64 72.56 26.64C72.8 26.64 73.0933 26.84 73.44 27.24C73.8133 27.6133 74.1867 28.0933 74.56 28.68C74.96 29.2667 75.3333 29.88 75.68 30.52C76.0267 31.16 76.3067 31.7467 76.52 32.28C76.7333 32.8133 76.84 33.2 76.84 33.44ZM119.4 50.92C119.4 51.7467 119.067 52.4533 118.4 53.04C117.76 53.6 117.093 54.04 116.4 54.36C115.04 55 113.587 55.48 112.04 55.8C110.52 56.0933 109.013 56.24 107.52 56.24C106.24 56.24 104.96 56.12 103.68 55.88C102.427 55.64 101.24 55.24 100.12 54.68C99 54.12 98.0533 53.3733 97.28 52.44C96.5067 51.48 95.9733 50.2933 95.68 48.88C95.8667 48.7467 96.2 48.5067 96.68 48.16C97.1867 47.7867 97.6933 47.44 98.2 47.12C98.7067 46.8 99.0533 46.64 99.24 46.64C99.48 46.64 99.64 46.7867 99.72 47.08C99.8533 47.48 99.9867 47.8667 100.12 48.24C100.253 48.5867 100.427 48.9467 100.64 49.32C101.493 50.76 102.707 51.8667 104.28 52.64C105.853 53.4133 107.453 53.8 109.08 53.8C110.173 53.8 111.227 53.72 112.24 53.56C113.28 53.3733 114.307 53.1067 115.32 52.76C115.133 52.5467 114.96 52.2933 114.8 52C114.667 51.68 114.6 51.3733 114.6 51.08C114.6 50.4933 114.84 49.9867 115.32 49.56C115.8 49.1067 116.32 48.88 116.88 48.88C117.413 48.88 117.96 49.0667 118.52 49.44C119.107 49.8133 119.4 50.3067 119.4 50.92ZM117.32 31.28C117.32 31.92 117.04 32.6 116.48 33.32C115.92 34.0133 115.267 34.6533 114.52 35.24C113.8 35.8267 113.187 36.28 112.68 36.6C112.493 36.7333 112.28 36.88 112.04 37.04C111.827 37.1733 111.613 37.2933 111.4 37.4C111.213 37.48 111 37.52 110.76 37.52C110.573 37.52 110.413 37.48 110.28 37.4C110.147 37.2933 110.08 37.1467 110.08 36.96C110.08 36.7467 110.173 36.44 110.36 36.04C110.547 35.6133 110.733 35.16 110.92 34.68C111.107 34.1733 111.2 33.72 111.2 33.32C111.2 32.84 111.053 32.5067 110.76 32.32C110.493 32.1067 110.16 31.9733 109.76 31.92C109.387 31.84 109.027 31.7867 108.68 31.76C108.333 31.7333 107.96 31.72 107.56 31.72C107.187 31.6933 106.813 31.68 106.44 31.68C105.053 31.68 103.653 31.7467 102.24 31.88C100.853 32.0133 99.4667 32.16 98.08 32.32L98.12 29.84C100.973 29.6 103.84 29.48 106.72 29.48C108.32 29.48 109.92 29.5333 111.52 29.64C113.147 29.72 114.747 29.9333 116.32 30.28C116.533 30.3067 116.733 30.3867 116.92 30.52C117.187 30.6267 117.32 30.88 117.32 31.28ZM124.88 33.44C124.88 33.52 124.827 33.6133 124.72 33.72C124.64 33.8 124.547 33.84 124.44 33.84C124.253 33.84 123.933 33.76 123.48 33.6C123.027 33.44 122.52 33.24 121.96 33C121.427 32.76 120.907 32.5333 120.4 32.32C119.92 32.1067 119.547 31.96 119.28 31.88C119.2 31.8533 119.093 31.8133 118.96 31.76C118.853 31.7067 118.8 31.6267 118.8 31.52C118.8 31.36 118.96 31.0933 119.28 30.72C119.6 30.32 119.933 29.96 120.28 29.64C120.653 29.2933 120.92 29.12 121.08 29.12C121.373 29.12 121.733 29.2933 122.16 29.64C122.587 29.96 123 30.3733 123.4 30.88C123.827 31.36 124.173 31.84 124.44 32.32C124.733 32.7733 124.88 33.1467 124.88 33.44ZM127.36 29.72C127.36 29.8 127.307 29.8933 127.2 30C127.12 30.08 127.027 30.12 126.92 30.12C126.84 30.12 126.613 30.04 126.24 29.88C125.893 29.6933 125.493 29.4933 125.04 29.28C124.587 29.04 124.16 28.8133 123.76 28.6C123.387 28.3867 123.133 28.24 123 28.16C122.893 28.1067 122.693 28.04 122.4 27.96C122.133 27.8533 121.88 27.7333 121.64 27.6C121.4 27.4667 121.28 27.3467 121.28 27.24C121.28 27.08 121.44 26.8133 121.76 26.44C122.08 26.0667 122.427 25.72 122.8 25.4C123.2 25.08 123.48 24.92 123.64 24.92C123.96 24.92 124.333 25.1067 124.76 25.48C125.187 25.8533 125.587 26.32 125.96 26.88C126.36 27.4133 126.693 27.9467 126.96 28.48C127.227 28.9867 127.36 29.4 127.36 29.72ZM162.24 50.04C162.24 50.5467 162.04 51.0533 161.64 51.56C161.267 52.04 160.813 52.48 160.28 52.88C159.773 53.2533 159.32 53.56 158.92 53.8C158.093 54.2533 157.093 54.6933 155.92 55.12C154.773 55.5467 153.6 55.8933 152.4 56.16C151.227 56.4533 150.16 56.6 149.2 56.6C148.08 56.6 146.893 56.48 145.64 56.24C144.387 56.0267 143.2 55.6533 142.08 55.12C140.987 54.56 140.093 53.8267 139.4 52.92C138.707 51.9867 138.36 50.8267 138.36 49.44C138.36 48.24 138.667 47.1333 139.28 46.12C139.92 45.1067 140.733 44.1867 141.72 43.36C142.707 42.5333 143.747 41.8 144.84 41.16C145.933 40.52 146.947 39.9733 147.88 39.52C147.4 39.1467 147.013 38.7067 146.72 38.2C146.427 37.6667 146.2 37.1067 146.04 36.52C145.933 36.1467 145.84 35.7733 145.76 35.4C145.707 35.0267 145.653 34.6533 145.6 34.28C145.413 32.8133 145.24 31.3467 145.08 29.88C144.947 28.4133 144.813 26.9467 144.68 25.48L149.48 25.2C149.533 26.3467 149.573 27.4933 149.6 28.64C149.627 29.7867 149.667 30.9467 149.72 32.12C149.747 32.7067 149.773 33.3067 149.8 33.92C149.827 34.5067 149.893 35.1067 150 35.72C150.027 35.8533 150.08 36.08 150.16 36.4C150.267 36.6933 150.4 36.9733 150.56 37.24C150.72 37.48 150.893 37.6 151.08 37.6C151.24 37.6 151.507 37.4933 151.88 37.28C152.253 37.04 152.627 36.8133 153 36.6C153.4 36.3867 153.72 36.28 153.96 36.28C154.2 36.28 154.373 36.32 154.48 36.4C154.613 36.48 154.773 36.6 154.96 36.76C155.147 36.92 155.387 37.1733 155.68 37.52C155.973 37.84 156.227 38.1867 156.44 38.56C156.68 38.9067 156.8 39.2133 156.8 39.48C156.8 39.9067 156.64 40.1867 156.32 40.32C156.027 40.4533 155.693 40.52 155.32 40.52C155.133 40.52 154.947 40.52 154.76 40.52C154.6 40.4933 154.427 40.48 154.24 40.48C153.147 40.48 151.92 40.6533 150.56 41C149.2 41.3467 147.893 41.8667 146.64 42.56C145.413 43.2533 144.387 44.1067 143.56 45.12C142.76 46.1067 142.36 47.2533 142.36 48.56C142.36 49.7867 142.747 50.8 143.52 51.6C144.293 52.3733 145.227 52.9467 146.32 53.32C147.44 53.6933 148.52 53.88 149.56 53.88C151.053 53.88 152.627 53.6933 154.28 53.32C155.96 52.9467 157.48 52.44 158.84 51.8C157.987 51.5067 157.56 50.8933 157.56 49.96C157.56 49.4 157.813 48.9333 158.32 48.56C158.853 48.16 159.387 47.96 159.92 47.96C160.507 47.96 161.04 48.16 161.52 48.56C162 48.9333 162.24 49.4267 162.24 50.04ZM199.84 42.48C199.84 44.4533 199.413 46.2933 198.56 48C197.707 49.68 196.587 51.2 195.2 52.56C193.973 53.7867 192.653 54.7733 191.24 55.52C189.827 56.2667 188.32 56.9333 186.72 57.52C186.453 57.6 186.027 57.7333 185.44 57.92C184.88 58.1067 184.32 58.28 183.76 58.44C183.2 58.6 182.8 58.68 182.56 58.68C182.453 58.68 182.333 58.64 182.2 58.56C182.067 58.5067 182 58.4133 182 58.28C182 58.12 182.067 57.9867 182.2 57.88C182.333 57.7733 182.453 57.7067 182.56 57.68C183.093 57.4667 183.707 57.2 184.4 56.88C185.093 56.56 185.707 56.2267 186.24 55.88C187.787 54.8933 189.213 53.7333 190.52 52.4C191.853 51.04 192.92 49.52 193.72 47.84C194.52 46.16 194.92 44.3733 194.92 42.48C194.92 41.5733 194.773 40.6533 194.48 39.72C194.213 38.76 193.76 37.96 193.12 37.32C192.48 36.68 191.613 36.36 190.52 36.36C189.773 36.36 188.88 36.5733 187.84 37C186.827 37.4267 185.827 37.9467 184.84 38.56C183.88 39.1467 183.107 39.68 182.52 40.16C182.387 40.2667 182.24 40.3733 182.08 40.48C181.92 40.5867 181.733 40.64 181.52 40.64C181.253 40.64 181.067 40.56 180.96 40.4C180.88 40.2133 180.813 40.0267 180.76 39.84C180.627 39.3867 180.533 38.8933 180.48 38.36C180.453 37.8267 180.413 37.32 180.36 36.84C182.013 36.04 183.707 35.4133 185.44 34.96C187.173 34.5067 188.96 34.28 190.8 34.28C193.493 34.28 195.667 34.9333 197.32 36.24C199 37.5467 199.84 39.6267 199.84 42.48ZM194.6 30.92C194.6 31.16 194.467 31.3067 194.2 31.36C193.933 31.3867 193.72 31.4 193.56 31.4C192.947 31.4 192.333 31.36 191.72 31.28C191.133 31.1733 190.533 31.0533 189.92 30.92C189.707 30.8667 189.28 30.7333 188.64 30.52C188.027 30.3067 187.36 30.0667 186.64 29.8C185.947 29.5067 185.347 29.2267 184.84 28.96C184.333 28.6667 184.08 28.4133 184.08 28.2C184.08 28.12 184.187 27.9333 184.4 27.64C184.613 27.32 184.867 26.9867 185.16 26.64C185.48 26.2667 185.773 25.9333 186.04 25.64C186.307 25.3467 186.48 25.16 186.56 25.08C186.773 24.92 187 24.84 187.24 24.84C187.4 24.84 187.533 24.88 187.64 24.96C187.827 25.0667 188.067 25.28 188.36 25.6C188.653 25.8933 188.88 26.12 189.04 26.28C189.707 27.0267 190.44 27.7067 191.24 28.32C192.067 28.9067 192.893 29.4667 193.72 30C193.88 30.1067 194.067 30.2267 194.28 30.36C194.493 30.4933 194.6 30.68 194.6 30.92ZM226.88 47.36L226.8 55.04C227.813 54.9067 228.813 54.7067 229.8 54.44C230.813 54.1733 231.8 53.8667 232.76 53.52C232.227 52.9067 231.72 52.28 231.24 51.64C230.76 51 230.293 50.3467 229.84 49.68C230.96 49.3067 232.08 48.9333 233.2 48.56C234.32 48.1867 235.427 47.7867 236.52 47.36H226.88ZM224.28 34.72V32.08H221.32V34.72H224.28ZM224.28 30.44V27.92H221.32V30.44H224.28ZM231.24 34.72V32.08H228.64V34.72H231.24ZM231.24 30.44V27.92H228.64V30.44H231.24ZM238.96 27.92H235.64V30.44H235.84C235.92 30.1467 236.08 29.92 236.32 29.76C236.587 29.5733 236.867 29.48 237.16 29.48C237.533 29.48 237.84 29.6133 238.08 29.88C238.32 30.12 238.44 30.4267 238.44 30.8C238.44 31.3067 238.28 31.6533 237.96 31.84C237.64 32 237.267 32.08 236.84 32.08C236.413 32.08 236.013 32.08 235.64 32.08V34.72H236.2C237.133 34.72 237.827 34.4667 238.28 33.96C238.733 33.4267 238.96 32.7067 238.96 31.8V27.92ZM247.72 57.92C247.72 58.3733 247.52 58.76 247.12 59.08C246.747 59.4267 246.333 59.6 245.88 59.6C243.453 59.6 241.28 59.16 239.36 58.28C237.467 57.4267 235.653 56.1867 233.92 54.56C232.373 56.0267 230.587 57.08 228.56 57.72C226.533 58.36 224.493 58.8267 222.44 59.12L222.52 47.36H220.48C220.213 49.4667 219.653 51.4267 218.8 53.24C217.947 55.0267 216.64 56.5867 214.88 57.92C214.533 58.1867 214.067 58.4667 213.48 58.76C212.893 59.08 212.373 59.24 211.92 59.24C211.813 59.24 211.72 59.1867 211.64 59.08C211.587 59 211.56 58.92 211.56 58.84C211.56 58.7867 211.667 58.6133 211.88 58.32C212.12 58.0533 212.36 57.76 212.6 57.44C212.867 57.12 213.027 56.9067 213.08 56.8C214.413 54.8267 215.253 52.7067 215.6 50.44C215.973 48.1733 216.16 45.8667 216.16 43.52C216.16 42.6133 216.147 41.72 216.12 40.84C216.12 39.9333 216.107 39.0267 216.08 38.12H242C242.027 37.5067 242.227 36.9733 242.6 36.52C243 36.04 243.52 35.8 244.16 35.8C244.773 35.8 245.32 35.9733 245.8 36.32C246.307 36.64 246.56 37.1333 246.56 37.8C246.56 38.52 246.333 39.04 245.88 39.36C245.453 39.68 244.907 39.84 244.24 39.84H220.8C220.8 40.5067 220.8 41.1733 220.8 41.84C220.827 42.5067 220.84 43.1867 220.84 43.88C220.84 44.1467 220.827 44.4267 220.8 44.72C220.8 44.9867 220.787 45.2667 220.76 45.56H242.72C242.773 45.0267 243 44.5733 243.4 44.2C243.827 43.8267 244.307 43.64 244.84 43.64C245.373 43.64 245.867 43.8133 246.32 44.16C246.773 44.48 247 44.92 247 45.48C247 46.0133 246.8 46.4667 246.4 46.84C246.027 47.1867 245.573 47.36 245.04 47.36H240.6C240.707 47.44 240.907 47.6133 241.2 47.88C241.493 48.1467 241.773 48.4133 242.04 48.68C242.307 48.9467 242.44 49.1333 242.44 49.24C242.44 49.4267 242.32 49.5867 242.08 49.72C242.027 49.7467 241.707 49.7867 241.12 49.84C240.533 49.8933 239.84 49.9467 239.04 50C238.267 50.0533 237.547 50.1067 236.88 50.16C236.213 50.1867 235.773 50.2133 235.56 50.24C236.547 51.7867 237.747 53.24 239.16 54.6C240.6 55.96 242.133 57.0667 243.76 57.92V57.88C243.867 57.3467 244.093 56.8933 244.44 56.52C244.813 56.1733 245.293 56 245.88 56C246.413 56 246.853 56.1867 247.2 56.56C247.547 56.9333 247.72 57.3867 247.72 57.92ZM240.76 42C240.76 42.5067 240.573 42.9067 240.2 43.2C239.853 43.4667 239.44 43.6 238.96 43.6H223.56V41.88H237.28C237.36 41.48 237.573 41.1467 237.92 40.88C238.267 40.6133 238.64 40.48 239.04 40.48C239.44 40.48 239.827 40.6267 240.2 40.92C240.573 41.2133 240.76 41.5733 240.76 42ZM243.64 32C243.64 33.2533 243.333 34.1867 242.72 34.8C242.107 35.3867 241.333 35.7733 240.4 35.96C239.467 36.1467 238.493 36.24 237.48 36.24H216.84V26.2H224.28V22.76H228.64V26.2H231.24V22.8H235.64V26.2H243.64V32ZM273.52 40.4H265.28V43.36H271.92C272.507 43.36 272.92 43.1867 273.16 42.84C273.4 42.4933 273.52 42.0533 273.52 41.52V40.4ZM280.32 52.04C280.32 52.44 280.16 52.8 279.84 53.12C279.547 53.44 279.187 53.6 278.76 53.6C277.933 53.6 277.053 53.32 276.12 52.76C275.187 52.2 274.32 51.5467 273.52 50.8C272.72 50.0267 272.067 49.3333 271.56 48.72V54.76H267.16V48.12C266.093 49.1333 264.907 50.0133 263.6 50.76C262.32 51.5067 260.947 52.0267 259.48 52.32C259.453 52.32 259.413 52.3333 259.36 52.36C259.307 52.36 259.253 52.36 259.2 52.36C259.12 52.36 259.027 52.3467 258.92 52.32C258.84 52.2667 258.8 52.1867 258.8 52.08C258.8 51.92 258.893 51.7733 259.08 51.64C260.387 50.68 261.587 49.6533 262.68 48.56C263.773 47.44 264.747 46.2 265.6 44.84H261.16V38.84H277.76V41.4C277.76 42.4933 277.36 43.3467 276.56 43.96C275.787 44.5467 274.893 44.84 273.88 44.84H271.56V47.64C272.653 47.1067 273.733 46.5467 274.8 45.96C275.867 45.3467 276.88 44.6667 277.84 43.92C278 44.0533 278.28 44.2933 278.68 44.64C279.08 44.9867 279.453 45.3467 279.8 45.72C280.147 46.0933 280.32 46.3733 280.32 46.56C280.32 46.7467 280.253 46.88 280.12 46.96C280.013 47.04 279.72 47.12 279.24 47.2C278.76 47.2533 278.213 47.32 277.6 47.4C277.013 47.4533 276.453 47.5067 275.92 47.56C275.413 47.6133 275.053 47.6533 274.84 47.68C275.133 48.2933 275.533 49 276.04 49.8C276.573 50.6 277.08 51.2533 277.56 51.76C277.667 51.4667 277.84 51.2267 278.08 51.04C278.347 50.8267 278.64 50.72 278.96 50.72C279.333 50.72 279.653 50.8533 279.92 51.12C280.187 51.36 280.32 51.6667 280.32 52.04ZM280.2 35.32C280.2 35.8533 280.027 36.28 279.68 36.6C279.333 36.92 278.893 37.08 278.36 37.08H259.44V35.44H267.2V32.72H261.52V31.04H267.2V28.04H271.6V31.04H274C274 30.5067 274.187 30.0667 274.56 29.72C274.96 29.3467 275.427 29.16 275.96 29.16C276.413 29.16 276.84 29.3467 277.24 29.72C277.64 30.0933 277.84 30.5067 277.84 30.96C277.84 31.4933 277.627 31.92 277.2 32.24C276.8 32.56 276.347 32.72 275.84 32.72H271.6V35.44H276.44C276.493 34.9067 276.693 34.4667 277.04 34.12C277.387 33.7467 277.827 33.56 278.36 33.56C278.84 33.56 279.267 33.7333 279.64 34.08C280.013 34.4267 280.2 34.84 280.2 35.32ZM281.16 27.32H258.72L258.64 56H276.44C277.72 56 278.693 55.7067 279.36 55.12C280.053 54.5067 280.52 53.72 280.76 52.76C281.027 51.7733 281.16 50.7467 281.16 49.68V27.32ZM286 49.4C286 52.5733 285.28 54.8133 283.84 56.12C282.4 57.4533 280.107 58.12 276.96 58.12H254.08L254.16 25.16H286V49.4Z" fill="#4E301B"/>
<path d="M88.048 74.37C88.048 74.5007 87.992 74.566 87.88 74.566C87.8427 74.566 87.81 74.566 87.782 74.566C87.754 74.5567 87.7307 74.5333 87.712 74.496C87.7027 74.4773 87.6887 74.4353 87.67 74.37C87.6607 74.2953 87.656 74.244 87.656 74.216C87.6093 73.936 87.5393 73.628 87.446 73.292C87.362 72.9467 87.2267 72.6667 87.04 72.452C86.9467 72.34 86.788 72.2653 86.564 72.228C86.34 72.1907 86.1113 72.172 85.878 72.172C85.6447 72.172 85.4627 72.172 85.332 72.172C85.192 72.172 85.0193 72.172 84.814 72.172C84.618 72.172 84.4407 72.2093 84.282 72.284C84.1327 72.3587 84.058 72.508 84.058 72.732C84.058 74.1413 84.0627 75.5553 84.072 76.974C84.0907 78.3833 84.1 79.7973 84.1 81.216C84.1 81.3373 84.1513 81.4307 84.254 81.496C84.3567 81.552 84.4733 81.5893 84.604 81.608C84.7347 81.6267 84.842 81.636 84.926 81.636C85.0007 81.636 85.066 81.636 85.122 81.636C85.1873 81.6267 85.2527 81.622 85.318 81.622C85.4113 81.622 85.458 81.664 85.458 81.748C85.458 81.7853 85.458 81.8413 85.458 81.916C85.458 81.9813 85.4253 82.014 85.36 82.014C85.024 82.014 84.688 82.0093 84.352 82C84.0253 81.9813 83.694 81.972 83.358 81.972C82.91 81.972 82.4527 81.986 81.986 82.014C81.8833 82.014 81.776 82.0187 81.664 82.028C81.552 82.0373 81.4447 82.042 81.342 82.042C81.258 82.042 81.216 81.9907 81.216 81.888C81.216 81.776 81.23 81.706 81.258 81.678C81.286 81.65 81.3513 81.636 81.454 81.636C81.4727 81.636 81.4913 81.6407 81.51 81.65C81.538 81.65 81.5567 81.65 81.566 81.65C81.6687 81.65 81.7993 81.6407 81.958 81.622C82.1167 81.6033 82.2567 81.566 82.378 81.51C82.5087 81.4447 82.574 81.3467 82.574 81.216C82.5833 80.4973 82.588 79.7787 82.588 79.06C82.5973 78.3413 82.602 77.6227 82.602 76.904C82.602 76.1947 82.5973 75.49 82.588 74.79C82.5787 74.0807 82.574 73.3713 82.574 72.662C82.574 72.55 82.5273 72.4473 82.434 72.354C82.35 72.2607 82.2567 72.2093 82.154 72.2C82.07 72.1813 81.9813 72.172 81.888 72.172C81.804 72.172 81.7153 72.172 81.622 72.172H80.376C80.04 72.172 79.788 72.256 79.62 72.424C79.4613 72.5827 79.3493 72.7927 79.284 73.054C79.2187 73.306 79.158 73.5673 79.102 73.838C79.102 73.8567 79.088 73.922 79.06 74.034C79.0413 74.1367 79.018 74.2393 78.99 74.342C78.9713 74.4353 78.9573 74.4867 78.948 74.496C78.9107 74.5427 78.8547 74.566 78.78 74.566C78.6773 74.566 78.626 74.5147 78.626 74.412C78.626 74.3747 78.626 74.328 78.626 74.272C78.6353 74.2067 78.6447 74.132 78.654 74.048C78.6727 73.8333 78.6867 73.5767 78.696 73.278C78.7147 72.97 78.7287 72.6853 78.738 72.424C78.7473 72.3307 78.752 72.2373 78.752 72.144C78.752 72.0507 78.7567 71.9667 78.766 71.892C78.766 71.7613 78.8453 71.7053 79.004 71.724C79.6853 71.7893 80.3713 71.822 81.062 71.822C81.762 71.8127 82.4527 71.808 83.134 71.808H84.324C84.7067 71.808 85.0893 71.808 85.472 71.808C85.864 71.7987 86.256 71.7893 86.648 71.78C86.816 71.7707 86.9887 71.766 87.166 71.766C87.3527 71.7567 87.5347 71.752 87.712 71.752C87.8333 71.752 87.9033 71.7987 87.922 71.892C87.9313 71.92 87.9407 72.0227 87.95 72.2C87.9593 72.368 87.9687 72.564 87.978 72.788C87.9873 73.0027 87.992 73.208 87.992 73.404C88.0013 73.5907 88.006 73.7213 88.006 73.796C88.0153 73.8893 88.0247 73.9827 88.034 74.076C88.0433 74.1693 88.048 74.2673 88.048 74.37ZM93.234 80.362C93.1967 79.942 93.1733 79.522 93.164 79.102C93.164 78.6727 93.1593 78.2433 93.15 77.814H92.954C92.6647 77.814 92.3427 77.8607 91.988 77.954C91.6427 78.038 91.3113 78.1687 90.994 78.346C90.6767 78.5233 90.4153 78.7473 90.21 79.018C90.014 79.2793 89.916 79.5827 89.916 79.928C89.916 80.376 90.042 80.7167 90.294 80.95C90.546 81.174 90.8867 81.286 91.316 81.286C91.5213 81.286 91.7453 81.2393 91.988 81.146C92.2307 81.0433 92.464 80.922 92.688 80.782C92.912 80.642 93.094 80.502 93.234 80.362ZM95.684 81.258C95.684 81.2953 95.6793 81.3233 95.67 81.342C95.5767 81.5473 95.418 81.706 95.194 81.818C94.9793 81.9207 94.7647 81.972 94.55 81.972C94.158 81.972 93.8733 81.86 93.696 81.636C93.528 81.4027 93.3927 81.118 93.29 80.782C92.9353 81.1087 92.5433 81.384 92.114 81.608C91.6847 81.8227 91.2227 81.93 90.728 81.93C90.3827 81.93 90.056 81.8647 89.748 81.734C89.4493 81.594 89.2067 81.3933 89.02 81.132C88.8333 80.8707 88.74 80.5533 88.74 80.18C88.74 79.788 88.838 79.452 89.034 79.172C89.2393 78.8827 89.496 78.64 89.804 78.444C90.1213 78.2387 90.4573 78.0753 90.812 77.954C91.176 77.8233 91.5167 77.7253 91.834 77.66C92.0487 77.6133 92.268 77.5713 92.492 77.534C92.716 77.4967 92.9353 77.4593 93.15 77.422C93.15 77.1607 93.136 76.8573 93.108 76.512C93.0893 76.1667 93.0193 75.882 92.898 75.658C92.7767 75.4433 92.6133 75.252 92.408 75.084C92.2027 74.916 91.974 74.832 91.722 74.832C91.2927 74.832 90.9567 74.944 90.714 75.168C90.4713 75.392 90.2987 75.7093 90.196 76.12C90.1867 76.1667 90.1773 76.218 90.168 76.274C90.168 76.3207 90.1633 76.3673 90.154 76.414C90.1447 76.47 90.1073 76.5213 90.042 76.568C89.986 76.6053 89.9253 76.624 89.86 76.624C89.6827 76.624 89.5193 76.582 89.37 76.498C89.23 76.414 89.16 76.274 89.16 76.078C89.16 75.966 89.1787 75.868 89.216 75.784C89.3373 75.4947 89.5333 75.2567 89.804 75.07C90.0747 74.874 90.3733 74.7247 90.7 74.622C91.036 74.5193 91.3487 74.468 91.638 74.468C92.142 74.468 92.5993 74.5613 93.01 74.748C93.4207 74.9347 93.7473 75.21 93.99 75.574C94.242 75.9287 94.368 76.3767 94.368 76.918C94.368 77.5247 94.3633 78.136 94.354 78.752C94.354 79.368 94.3727 79.984 94.41 80.6C94.4193 80.8053 94.4613 80.9873 94.536 81.146C94.6107 81.2953 94.7647 81.37 94.998 81.37C95.1193 81.37 95.2453 81.342 95.376 81.286C95.516 81.2207 95.6047 81.188 95.642 81.188C95.67 81.188 95.684 81.2113 95.684 81.258ZM100.877 81.356C100.877 81.44 100.812 81.524 100.681 81.608C100.56 81.692 100.411 81.7667 100.233 81.832C100.056 81.8973 99.8833 81.9487 99.7153 81.986C99.5566 82.0233 99.4399 82.042 99.3653 82.042C98.8799 82.042 98.5019 81.9813 98.2313 81.86C97.9699 81.7387 97.7833 81.538 97.6713 81.258C97.5686 80.978 97.5173 80.6 97.5173 80.124C97.5173 79.3493 97.5173 78.5747 97.5173 77.8C97.5266 77.016 97.5359 76.2367 97.5453 75.462H96.5373C96.4719 75.462 96.4159 75.4807 96.3693 75.518C96.3319 75.546 96.2899 75.56 96.2432 75.56C96.1966 75.56 96.1733 75.5273 96.1733 75.462C96.1733 75.4247 96.1966 75.35 96.2432 75.238C96.2993 75.126 96.3366 75.0513 96.3553 75.014C96.3833 75.0233 96.4253 75.028 96.4813 75.028H97.5733L97.5873 73.25C97.8019 73.11 97.9979 72.956 98.1753 72.788C98.3526 72.6107 98.5299 72.4333 98.7073 72.256C98.7259 72.2373 98.7446 72.2233 98.7633 72.214C98.7819 72.1953 98.8006 72.186 98.8193 72.186C98.9033 72.186 98.9453 72.2187 98.9453 72.284L98.8613 75.014C99.1599 75.014 99.4539 75.0093 99.7433 75C100.042 74.9907 100.336 74.986 100.625 74.986C100.747 74.986 100.807 75.056 100.807 75.196C100.807 75.3733 100.728 75.462 100.569 75.462H98.8613C98.8613 76.1713 98.8566 76.8853 98.8473 77.604C98.8473 78.3133 98.8473 79.0273 98.8473 79.746V80.824C98.8473 81.0573 98.9453 81.2207 99.1413 81.314C99.3373 81.398 99.5286 81.44 99.7153 81.44C99.9766 81.44 100.233 81.398 100.485 81.314C100.513 81.2953 100.555 81.2767 100.611 81.258C100.667 81.2393 100.709 81.23 100.737 81.23C100.831 81.23 100.877 81.272 100.877 81.356ZM106.702 77.086C106.693 76.7033 106.66 76.3393 106.604 75.994C106.548 75.6393 106.413 75.35 106.198 75.126C105.984 74.8927 105.634 74.776 105.148 74.776C104.71 74.776 104.35 74.8973 104.07 75.14C103.8 75.3733 103.59 75.672 103.44 76.036C103.291 76.3907 103.179 76.7547 103.104 77.128C103.338 77.1373 103.566 77.1467 103.79 77.156C104.014 77.156 104.238 77.156 104.462 77.156C104.836 77.156 105.209 77.1513 105.582 77.142C105.956 77.1233 106.329 77.1047 106.702 77.086ZM108.312 80.292C108.312 80.3387 108.303 80.3667 108.284 80.376C108.256 80.4693 108.186 80.5813 108.074 80.712C107.972 80.8427 107.855 80.9687 107.724 81.09C107.594 81.202 107.486 81.286 107.402 81.342C107.094 81.5567 106.744 81.7293 106.352 81.86C105.97 81.9907 105.587 82.056 105.204 82.056C104.887 82.056 104.532 82.0047 104.14 81.902C103.758 81.7993 103.431 81.6593 103.16 81.482C102.638 81.1367 102.255 80.684 102.012 80.124C101.77 79.564 101.648 78.9807 101.648 78.374C101.648 77.6833 101.784 77.044 102.054 76.456C102.325 75.868 102.759 75.392 103.356 75.028C103.627 74.8693 103.93 74.7387 104.266 74.636C104.602 74.524 104.924 74.468 105.232 74.468C105.783 74.468 106.268 74.58 106.688 74.804C107.108 75.028 107.435 75.3453 107.668 75.756C107.911 76.1573 108.032 76.638 108.032 77.198C108.032 77.3567 107.995 77.4593 107.92 77.506C107.855 77.5527 107.752 77.576 107.612 77.576C107.426 77.576 107.239 77.5713 107.052 77.562C106.866 77.5527 106.679 77.5433 106.492 77.534C106.231 77.5153 105.97 77.506 105.708 77.506C105.456 77.506 105.2 77.506 104.938 77.506C104.621 77.506 104.304 77.506 103.986 77.506C103.669 77.506 103.352 77.5153 103.034 77.534C103.025 77.6833 103.016 77.828 103.006 77.968C102.997 78.108 102.992 78.2527 102.992 78.402C102.992 78.7473 103.034 79.1067 103.118 79.48C103.202 79.844 103.338 80.1847 103.524 80.502C103.711 80.81 103.949 81.062 104.238 81.258C104.528 81.4447 104.878 81.538 105.288 81.538C105.708 81.538 106.11 81.4727 106.492 81.342C106.875 81.2113 107.225 81.0013 107.542 80.712C107.626 80.628 107.701 80.5393 107.766 80.446C107.841 80.3433 107.92 80.2547 108.004 80.18C108.051 80.1333 108.102 80.11 108.158 80.11C108.205 80.11 108.242 80.1287 108.27 80.166C108.298 80.2033 108.312 80.2453 108.312 80.292ZM114.415 79.998C114.415 80.418 114.322 80.7633 114.135 81.034C113.948 81.2953 113.706 81.496 113.407 81.636C113.108 81.776 112.782 81.874 112.427 81.93C112.072 81.986 111.727 82.014 111.391 82.014C111.083 82.014 110.775 81.9813 110.467 81.916C110.168 81.8507 109.865 81.804 109.557 81.776C109.492 81.524 109.426 81.272 109.361 81.02C109.305 80.768 109.24 80.5207 109.165 80.278C109.156 80.25 109.132 80.1847 109.095 80.082C109.067 79.9793 109.053 79.9233 109.053 79.914C109.053 79.8393 109.076 79.788 109.123 79.76C109.17 79.7227 109.226 79.704 109.291 79.704C109.356 79.704 109.403 79.7273 109.431 79.774C109.487 79.8393 109.534 79.928 109.571 80.04C109.618 80.152 109.66 80.25 109.697 80.334C109.772 80.4833 109.837 80.6 109.893 80.684C109.949 80.7587 110.038 80.8567 110.159 80.978C110.523 81.3607 110.976 81.552 111.517 81.552C111.816 81.552 112.086 81.5193 112.329 81.454C112.581 81.3887 112.782 81.2673 112.931 81.09C113.08 80.9033 113.155 80.6373 113.155 80.292C113.155 79.9933 113.062 79.746 112.875 79.55C112.688 79.3447 112.446 79.1627 112.147 79.004C111.858 78.8453 111.55 78.6913 111.223 78.542C110.896 78.3927 110.584 78.2293 110.285 78.052C109.996 77.8653 109.758 77.6413 109.571 77.38C109.384 77.1187 109.291 76.8013 109.291 76.428C109.291 75.9707 109.408 75.5973 109.641 75.308C109.884 75.0187 110.192 74.804 110.565 74.664C110.938 74.5147 111.326 74.44 111.727 74.44C111.988 74.44 112.222 74.4727 112.427 74.538C112.642 74.6033 112.866 74.678 113.099 74.762C113.174 74.79 113.248 74.8087 113.323 74.818C113.398 74.8273 113.472 74.832 113.547 74.832C113.594 74.832 113.636 74.832 113.673 74.832C113.71 74.832 113.748 74.8273 113.785 74.818C113.813 74.986 113.836 75.1587 113.855 75.336C113.883 75.504 113.906 75.6767 113.925 75.854C113.934 75.9193 113.944 75.9987 113.953 76.092C113.972 76.176 113.981 76.2553 113.981 76.33C113.981 76.3953 113.967 76.4653 113.939 76.54C113.911 76.6053 113.855 76.638 113.771 76.638C113.706 76.638 113.65 76.6333 113.603 76.624C113.566 76.6053 113.533 76.5633 113.505 76.498C113.458 76.4047 113.416 76.3067 113.379 76.204C113.351 76.092 113.318 75.9893 113.281 75.896C113.16 75.5693 112.95 75.308 112.651 75.112C112.352 74.9067 112.03 74.804 111.685 74.804C111.246 74.804 110.915 74.9347 110.691 75.196C110.467 75.448 110.355 75.7887 110.355 76.218C110.355 76.3673 110.392 76.512 110.467 76.652C110.551 76.792 110.644 76.9133 110.747 77.016C110.943 77.2027 111.172 77.3473 111.433 77.45C111.704 77.5527 111.96 77.6553 112.203 77.758C112.52 77.898 112.847 78.066 113.183 78.262C113.528 78.458 113.818 78.696 114.051 78.976C114.294 79.256 114.415 79.5967 114.415 79.998ZM123.631 81.846C123.631 81.8927 123.608 81.93 123.561 81.958C123.515 81.9767 123.468 81.986 123.421 81.986C123.188 81.986 122.95 81.9813 122.707 81.972C122.474 81.9533 122.236 81.944 121.993 81.944C121.723 81.944 121.447 81.9533 121.167 81.972C120.897 81.9907 120.626 82 120.355 82C120.309 82 120.276 81.972 120.257 81.916C120.248 81.8507 120.243 81.7993 120.243 81.762C120.243 81.6967 120.276 81.664 120.341 81.664C120.444 81.664 120.542 81.6687 120.635 81.678C120.738 81.678 120.836 81.678 120.929 81.678C121.051 81.678 121.144 81.6407 121.209 81.566C121.284 81.482 121.326 81.384 121.335 81.272C121.354 81.0387 121.359 80.8053 121.349 80.572C121.349 80.3387 121.349 80.11 121.349 79.886C121.349 79.606 121.349 79.3307 121.349 79.06C121.349 78.78 121.349 78.5 121.349 78.22C121.349 77.94 121.349 77.66 121.349 77.38C121.349 77.1 121.34 76.82 121.321 76.54C121.312 76.4187 121.298 76.302 121.279 76.19C121.27 76.0687 121.247 75.952 121.209 75.84C121.116 75.588 120.962 75.3967 120.747 75.266C120.542 75.126 120.304 75.056 120.033 75.056C119.716 75.056 119.403 75.14 119.095 75.308C118.787 75.4667 118.531 75.6673 118.325 75.91C118.101 76.1713 117.938 76.4 117.835 76.596C117.733 76.792 117.667 76.9973 117.639 77.212C117.621 77.4267 117.611 77.7067 117.611 78.052V80.516C117.611 80.6187 117.607 80.7633 117.597 80.95C117.597 81.1367 117.621 81.3047 117.667 81.454C117.723 81.6033 117.831 81.678 117.989 81.678C118.083 81.678 118.171 81.6733 118.255 81.664C118.339 81.6547 118.428 81.65 118.521 81.65C118.605 81.65 118.647 81.6967 118.647 81.79C118.647 81.8367 118.638 81.8833 118.619 81.93C118.61 81.9673 118.577 81.986 118.521 81.986C118.204 81.986 117.877 81.9813 117.541 81.972C117.215 81.9533 116.888 81.944 116.561 81.944C116.263 81.944 115.959 81.958 115.651 81.986C115.614 81.986 115.581 81.9907 115.553 82C115.525 82 115.493 82 115.455 82C115.409 82 115.371 81.9767 115.343 81.93C115.325 81.874 115.315 81.8273 115.315 81.79C115.315 81.6873 115.367 81.636 115.469 81.636C115.525 81.636 115.581 81.6407 115.637 81.65C115.693 81.65 115.754 81.65 115.819 81.65C115.95 81.65 116.085 81.6313 116.225 81.594C116.375 81.5473 116.454 81.44 116.463 81.272C116.482 80.964 116.487 80.656 116.477 80.348C116.477 80.04 116.477 79.7367 116.477 79.438C116.477 78.8593 116.477 78.2853 116.477 77.716C116.487 77.1467 116.491 76.5773 116.491 76.008C116.491 75.4107 116.487 74.818 116.477 74.23C116.468 73.6327 116.459 73.0353 116.449 72.438C116.449 72.3353 116.431 72.2233 116.393 72.102C116.356 71.9713 116.272 71.906 116.141 71.906C116.011 71.906 115.875 71.9153 115.735 71.934C115.595 71.9527 115.455 71.962 115.315 71.962C115.231 71.962 115.189 71.9247 115.189 71.85C115.189 71.766 115.231 71.71 115.315 71.682C115.502 71.6353 115.684 71.598 115.861 71.57C116.048 71.542 116.23 71.5093 116.407 71.472C116.566 71.4347 116.753 71.3833 116.967 71.318C117.191 71.2433 117.378 71.206 117.527 71.206C117.583 71.206 117.616 71.2247 117.625 71.262C117.635 71.29 117.639 71.3273 117.639 71.374C117.639 72.1393 117.639 72.9047 117.639 73.67C117.639 74.4353 117.63 75.2007 117.611 75.966C117.817 75.7513 118.064 75.5367 118.353 75.322C118.652 75.1073 118.969 74.93 119.305 74.79C119.641 74.6407 119.959 74.566 120.257 74.566C120.864 74.566 121.34 74.6547 121.685 74.832C122.031 75.0093 122.273 75.2847 122.413 75.658C122.553 76.022 122.623 76.498 122.623 77.086C122.623 77.786 122.619 78.486 122.609 79.186C122.609 79.8767 122.609 80.572 122.609 81.272C122.609 81.4213 122.647 81.5287 122.721 81.594C122.805 81.65 122.922 81.678 123.071 81.678C123.137 81.678 123.197 81.6733 123.253 81.664C123.319 81.6547 123.384 81.65 123.449 81.65C123.496 81.65 123.538 81.6733 123.575 81.72C123.613 81.7573 123.631 81.7993 123.631 81.846ZM128.206 81.79C128.206 81.8367 128.192 81.8833 128.164 81.93C128.136 81.9673 128.098 81.986 128.052 81.986C127.79 81.986 127.529 81.9813 127.268 81.972C127.016 81.9533 126.754 81.944 126.484 81.944H126.106C125.826 81.944 125.546 81.9533 125.266 81.972C124.995 81.9813 124.724 81.986 124.454 81.986C124.416 81.986 124.388 81.9627 124.37 81.916C124.36 81.8693 124.356 81.832 124.356 81.804C124.356 81.7573 124.36 81.7247 124.37 81.706C124.379 81.678 124.407 81.6593 124.454 81.65C124.5 81.6313 124.552 81.6267 124.608 81.636C124.673 81.636 124.734 81.636 124.79 81.636C124.855 81.636 124.916 81.6407 124.972 81.65C125.028 81.65 125.088 81.65 125.154 81.65C125.284 81.65 125.401 81.622 125.504 81.566C125.616 81.5007 125.672 81.3933 125.672 81.244V75.644C125.672 75.4853 125.644 75.364 125.588 75.28C125.532 75.1867 125.415 75.14 125.238 75.14C125.107 75.14 124.972 75.1493 124.832 75.168C124.701 75.1773 124.57 75.1913 124.44 75.21C124.365 75.21 124.328 75.168 124.328 75.084C124.328 74.9907 124.365 74.93 124.44 74.902C124.552 74.8647 124.668 74.8413 124.79 74.832C124.92 74.8133 125.042 74.7947 125.154 74.776C125.415 74.7293 125.676 74.678 125.938 74.622C126.199 74.566 126.456 74.5053 126.708 74.44C126.736 74.4307 126.773 74.426 126.82 74.426C126.922 74.426 126.974 74.482 126.974 74.594C126.974 75.6953 126.969 76.8013 126.96 77.912C126.96 79.0227 126.96 80.1333 126.96 81.244C126.96 81.3933 127.025 81.5007 127.156 81.566C127.296 81.622 127.426 81.65 127.548 81.65C127.641 81.65 127.734 81.6453 127.828 81.636C127.93 81.6267 128.028 81.622 128.122 81.622C128.159 81.622 128.182 81.6453 128.192 81.692C128.201 81.7387 128.206 81.7713 128.206 81.79ZM127.072 72.102C127.072 72.3353 126.988 72.536 126.82 72.704C126.652 72.8627 126.451 72.942 126.218 72.942C125.984 72.942 125.784 72.8627 125.616 72.704C125.448 72.536 125.364 72.3353 125.364 72.102C125.364 71.8687 125.448 71.6727 125.616 71.514C125.784 71.346 125.984 71.262 126.218 71.262C126.451 71.262 126.652 71.346 126.82 71.514C126.988 71.6727 127.072 71.8687 127.072 72.102ZM137.218 81.79C137.218 81.9113 137.148 81.972 137.008 81.972C136.803 81.972 136.593 81.9673 136.378 81.958C136.163 81.9393 135.949 81.93 135.734 81.93C135.417 81.93 135.09 81.9393 134.754 81.958C134.427 81.9673 134.101 81.972 133.774 81.972C133.737 81.972 133.713 81.944 133.704 81.888C133.695 81.8227 133.69 81.7713 133.69 81.734C133.69 81.6593 133.737 81.622 133.83 81.622C133.923 81.622 133.998 81.622 134.054 81.622C134.101 81.622 134.147 81.6267 134.194 81.636C134.25 81.636 134.301 81.636 134.348 81.636C134.619 81.636 134.768 81.5007 134.796 81.23C134.824 80.6793 134.833 80.124 134.824 79.564C134.824 79.004 134.824 78.4487 134.824 77.898C134.824 77.7953 134.824 77.6927 134.824 77.59C134.824 77.478 134.824 77.3707 134.824 77.268C134.815 77.0533 134.801 76.792 134.782 76.484C134.763 76.1667 134.721 75.91 134.656 75.714C134.507 75.2287 134.18 74.986 133.676 74.986C133.219 74.986 132.799 75.1027 132.416 75.336C132.033 75.5693 131.702 75.8633 131.422 76.218C131.413 76.8993 131.408 77.576 131.408 78.248C131.408 78.92 131.408 79.592 131.408 80.264V81.23C131.408 81.37 131.469 81.4727 131.59 81.538C131.711 81.6033 131.833 81.636 131.954 81.636C132.029 81.636 132.099 81.6313 132.164 81.622C132.239 81.6033 132.309 81.594 132.374 81.594C132.411 81.594 132.435 81.6173 132.444 81.664C132.453 81.7107 132.458 81.748 132.458 81.776C132.458 81.8133 132.444 81.8553 132.416 81.902C132.397 81.9487 132.36 81.972 132.304 81.972C132.099 81.972 131.893 81.9673 131.688 81.958C131.492 81.9393 131.291 81.93 131.086 81.93C130.769 81.93 130.451 81.9393 130.134 81.958C129.817 81.9673 129.495 81.972 129.168 81.972C129.121 81.972 129.093 81.944 129.084 81.888C129.084 81.8227 129.084 81.7713 129.084 81.734C129.084 81.6593 129.126 81.622 129.21 81.622C129.294 81.622 129.359 81.622 129.406 81.622C129.453 81.622 129.499 81.6267 129.546 81.636C129.593 81.636 129.639 81.636 129.686 81.636C129.957 81.636 130.106 81.5007 130.134 81.23C130.143 81.0993 130.148 80.9687 130.148 80.838C130.148 80.7073 130.148 80.5767 130.148 80.446C130.148 79.6433 130.148 78.8407 130.148 78.038C130.148 77.226 130.143 76.4187 130.134 75.616C130.134 75.4853 130.106 75.3547 130.05 75.224C129.994 75.0933 129.887 75.028 129.728 75.028C129.607 75.028 129.49 75.0467 129.378 75.084C129.266 75.1213 129.149 75.14 129.028 75.14C128.963 75.14 128.93 75.0933 128.93 75C128.93 74.9813 128.93 74.9627 128.93 74.944C128.939 74.916 128.949 74.8973 128.958 74.888C128.967 74.8787 128.981 74.874 129 74.874C129.019 74.8647 129.033 74.8553 129.042 74.846C129.21 74.7993 129.383 74.7667 129.56 74.748C129.747 74.7293 129.924 74.7013 130.092 74.664C130.251 74.636 130.405 74.5987 130.554 74.552C130.703 74.496 130.853 74.468 131.002 74.468C131.067 74.468 131.119 74.5007 131.156 74.566C131.203 74.65 131.24 74.7713 131.268 74.93C131.296 75.0793 131.315 75.2333 131.324 75.392C131.343 75.5507 131.352 75.6813 131.352 75.784C131.557 75.5787 131.8 75.378 132.08 75.182C132.369 74.9767 132.668 74.8087 132.976 74.678C133.293 74.538 133.601 74.468 133.9 74.468C134.759 74.468 135.337 74.6593 135.636 75.042C135.944 75.4153 136.098 76.008 136.098 76.82C136.098 77.548 136.093 78.276 136.084 79.004C136.084 79.732 136.084 80.46 136.084 81.188C136.084 81.3653 136.135 81.4867 136.238 81.552C136.35 81.608 136.481 81.636 136.63 81.636C136.705 81.636 136.779 81.6313 136.854 81.622C136.929 81.6033 136.999 81.594 137.064 81.594C137.12 81.594 137.157 81.6173 137.176 81.664C137.204 81.7013 137.218 81.7433 137.218 81.79ZM142.494 80.362C142.456 79.942 142.433 79.522 142.424 79.102C142.424 78.6727 142.419 78.2433 142.41 77.814H142.214C141.924 77.814 141.602 77.8607 141.248 77.954C140.902 78.038 140.571 78.1687 140.254 78.346C139.936 78.5233 139.675 78.7473 139.47 79.018C139.274 79.2793 139.176 79.5827 139.176 79.928C139.176 80.376 139.302 80.7167 139.554 80.95C139.806 81.174 140.146 81.286 140.576 81.286C140.781 81.286 141.005 81.2393 141.248 81.146C141.49 81.0433 141.724 80.922 141.948 80.782C142.172 80.642 142.354 80.502 142.494 80.362ZM144.944 81.258C144.944 81.2953 144.939 81.3233 144.93 81.342C144.836 81.5473 144.678 81.706 144.454 81.818C144.239 81.9207 144.024 81.972 143.81 81.972C143.418 81.972 143.133 81.86 142.956 81.636C142.788 81.4027 142.652 81.118 142.55 80.782C142.195 81.1087 141.803 81.384 141.374 81.608C140.944 81.8227 140.482 81.93 139.988 81.93C139.642 81.93 139.316 81.8647 139.008 81.734C138.709 81.594 138.466 81.3933 138.28 81.132C138.093 80.8707 138 80.5533 138 80.18C138 79.788 138.098 79.452 138.294 79.172C138.499 78.8827 138.756 78.64 139.064 78.444C139.381 78.2387 139.717 78.0753 140.072 77.954C140.436 77.8233 140.776 77.7253 141.094 77.66C141.308 77.6133 141.528 77.5713 141.752 77.534C141.976 77.4967 142.195 77.4593 142.41 77.422C142.41 77.1607 142.396 76.8573 142.368 76.512C142.349 76.1667 142.279 75.882 142.158 75.658C142.036 75.4433 141.873 75.252 141.668 75.084C141.462 74.916 141.234 74.832 140.982 74.832C140.552 74.832 140.216 74.944 139.974 75.168C139.731 75.392 139.558 75.7093 139.456 76.12C139.446 76.1667 139.437 76.218 139.428 76.274C139.428 76.3207 139.423 76.3673 139.414 76.414C139.404 76.47 139.367 76.5213 139.302 76.568C139.246 76.6053 139.185 76.624 139.12 76.624C138.942 76.624 138.779 76.582 138.63 76.498C138.49 76.414 138.42 76.274 138.42 76.078C138.42 75.966 138.438 75.868 138.476 75.784C138.597 75.4947 138.793 75.2567 139.064 75.07C139.334 74.874 139.633 74.7247 139.96 74.622C140.296 74.5193 140.608 74.468 140.898 74.468C141.402 74.468 141.859 74.5613 142.27 74.748C142.68 74.9347 143.007 75.21 143.25 75.574C143.502 75.9287 143.628 76.3767 143.628 76.918C143.628 77.5247 143.623 78.136 143.614 78.752C143.614 79.368 143.632 79.984 143.67 80.6C143.679 80.8053 143.721 80.9873 143.796 81.146C143.87 81.2953 144.024 81.37 144.258 81.37C144.379 81.37 144.505 81.342 144.636 81.286C144.776 81.2207 144.864 81.188 144.902 81.188C144.93 81.188 144.944 81.2113 144.944 81.258ZM159.223 77.688C159.223 77.744 159.209 77.7953 159.181 77.842C159.153 77.8887 159.106 77.912 159.041 77.912H158.173V80.908C157.52 81.132 156.871 81.3793 156.227 81.65C155.919 81.7807 155.592 81.8647 155.247 81.902C154.911 81.9393 154.58 81.958 154.253 81.958C153.973 81.958 153.66 81.9253 153.315 81.86C152.97 81.7947 152.634 81.7013 152.307 81.58C151.99 81.4587 151.71 81.3187 151.467 81.16C150.758 80.684 150.23 80.068 149.885 79.312C149.549 78.556 149.381 77.7533 149.381 76.904C149.381 76.1853 149.493 75.5087 149.717 74.874C149.95 74.2393 150.282 73.6793 150.711 73.194C151.14 72.7087 151.654 72.3307 152.251 72.06C152.858 71.78 153.534 71.64 154.281 71.64C154.832 71.64 155.359 71.7147 155.863 71.864C155.947 71.892 156.082 71.934 156.269 71.99C156.456 72.046 156.642 72.102 156.829 72.158C157.016 72.2047 157.142 72.228 157.207 72.228C157.403 72.228 157.538 72.2047 157.613 72.158C157.688 72.102 157.744 72.0413 157.781 71.976C157.828 71.9107 157.893 71.8593 157.977 71.822H158.089C158.164 71.822 158.206 71.864 158.215 71.948C158.234 72.0413 158.238 72.1393 158.229 72.242C158.229 72.3447 158.229 72.4473 158.229 72.55C158.229 72.8393 158.234 73.1287 158.243 73.418C158.262 73.7073 158.271 74.0013 158.271 74.3C158.271 74.412 158.266 74.5427 158.257 74.692C158.257 74.8413 158.173 74.916 158.005 74.916C157.949 74.916 157.898 74.9113 157.851 74.902C157.814 74.8833 157.776 74.8507 157.739 74.804C157.73 74.7853 157.706 74.734 157.669 74.65C157.632 74.5567 157.594 74.4633 157.557 74.37C157.52 74.2673 157.492 74.1973 157.473 74.16C157.221 73.5907 156.852 73.1147 156.367 72.732C156.115 72.5267 155.793 72.3633 155.401 72.242C155.018 72.1207 154.664 72.06 154.337 72.06C153.712 72.06 153.18 72.214 152.741 72.522C152.302 72.8207 151.948 73.2127 151.677 73.698C151.406 74.1833 151.21 74.706 151.089 75.266C150.968 75.826 150.907 76.3673 150.907 76.89C150.907 77.4407 150.972 77.982 151.103 78.514C151.234 79.046 151.434 79.5267 151.705 79.956C151.985 80.3853 152.349 80.7307 152.797 80.992C153.245 81.244 153.782 81.37 154.407 81.37C154.594 81.37 154.818 81.3513 155.079 81.314C155.34 81.2767 155.602 81.2113 155.863 81.118C156.124 81.0247 156.339 80.8987 156.507 80.74C156.684 80.5813 156.773 80.3807 156.773 80.138V78.29C156.773 78.1407 156.698 78.0473 156.549 78.01C156.409 77.9633 156.288 77.94 156.185 77.94C156.045 77.94 155.905 77.9493 155.765 77.968C155.625 77.9773 155.485 77.982 155.345 77.982C155.27 77.982 155.219 77.9587 155.191 77.912C155.172 77.8653 155.163 77.8093 155.163 77.744C155.163 77.688 155.172 77.6367 155.191 77.59C155.21 77.534 155.256 77.506 155.331 77.506C155.48 77.506 155.625 77.5107 155.765 77.52C155.905 77.52 156.05 77.52 156.199 77.52H157.193C157.352 77.52 157.51 77.52 157.669 77.52C157.828 77.52 157.986 77.5153 158.145 77.506C158.304 77.506 158.458 77.5013 158.607 77.492C158.756 77.4733 158.906 77.464 159.055 77.464C159.111 77.464 159.153 77.492 159.181 77.548C159.209 77.5947 159.223 77.6413 159.223 77.688ZM166.073 78.304C166.073 77.9027 166.04 77.5013 165.975 77.1C165.919 76.6893 165.807 76.3113 165.639 75.966C165.48 75.6207 165.247 75.3453 164.939 75.14C164.631 74.9253 164.229 74.818 163.735 74.818C163.268 74.818 162.885 74.93 162.587 75.154C162.297 75.378 162.069 75.6673 161.901 76.022C161.742 76.3767 161.63 76.7593 161.565 77.17C161.509 77.5807 161.481 77.968 161.481 78.332C161.481 78.7333 161.509 79.1347 161.565 79.536C161.63 79.9373 161.747 80.3013 161.915 80.628C162.083 80.9453 162.321 81.202 162.629 81.398C162.946 81.594 163.352 81.692 163.847 81.692C164.332 81.692 164.719 81.5893 165.009 81.384C165.307 81.1787 165.531 80.908 165.681 80.572C165.839 80.236 165.942 79.872 165.989 79.48C166.045 79.0787 166.073 78.6867 166.073 78.304ZM167.515 78.346C167.515 79.046 167.347 79.676 167.011 80.236C166.684 80.796 166.236 81.2393 165.667 81.566C165.107 81.8927 164.477 82.056 163.777 82.056C163.095 82.056 162.479 81.8927 161.929 81.566C161.378 81.23 160.939 80.7867 160.613 80.236C160.286 79.676 160.123 79.0553 160.123 78.374C160.123 77.674 160.281 77.03 160.599 76.442C160.916 75.8447 161.35 75.364 161.901 75C162.461 74.636 163.105 74.454 163.833 74.454C164.617 74.454 165.284 74.622 165.835 74.958C166.385 75.2847 166.801 75.742 167.081 76.33C167.37 76.9087 167.515 77.5807 167.515 78.346ZM173.256 81.356C173.256 81.44 173.191 81.524 173.06 81.608C172.939 81.692 172.789 81.7667 172.612 81.832C172.435 81.8973 172.262 81.9487 172.094 81.986C171.935 82.0233 171.819 82.042 171.744 82.042C171.259 82.042 170.881 81.9813 170.61 81.86C170.349 81.7387 170.162 81.538 170.05 81.258C169.947 80.978 169.896 80.6 169.896 80.124C169.896 79.3493 169.896 78.5747 169.896 77.8C169.905 77.016 169.915 76.2367 169.924 75.462H168.916C168.851 75.462 168.795 75.4807 168.748 75.518C168.711 75.546 168.669 75.56 168.622 75.56C168.575 75.56 168.552 75.5273 168.552 75.462C168.552 75.4247 168.575 75.35 168.622 75.238C168.678 75.126 168.715 75.0513 168.734 75.014C168.762 75.0233 168.804 75.028 168.86 75.028H169.952L169.966 73.25C170.181 73.11 170.377 72.956 170.554 72.788C170.731 72.6107 170.909 72.4333 171.086 72.256C171.105 72.2373 171.123 72.2233 171.142 72.214C171.161 72.1953 171.179 72.186 171.198 72.186C171.282 72.186 171.324 72.2187 171.324 72.284L171.24 75.014C171.539 75.014 171.833 75.0093 172.122 75C172.421 74.9907 172.715 74.986 173.004 74.986C173.125 74.986 173.186 75.056 173.186 75.196C173.186 75.3733 173.107 75.462 172.948 75.462H171.24C171.24 76.1713 171.235 76.8853 171.226 77.604C171.226 78.3133 171.226 79.0273 171.226 79.746V80.824C171.226 81.0573 171.324 81.2207 171.52 81.314C171.716 81.398 171.907 81.44 172.094 81.44C172.355 81.44 172.612 81.398 172.864 81.314C172.892 81.2953 172.934 81.2767 172.99 81.258C173.046 81.2393 173.088 81.23 173.116 81.23C173.209 81.23 173.256 81.272 173.256 81.356ZM179.963 78.304C179.963 77.9027 179.93 77.5013 179.865 77.1C179.809 76.6893 179.697 76.3113 179.529 75.966C179.37 75.6207 179.137 75.3453 178.829 75.14C178.521 74.9253 178.12 74.818 177.625 74.818C177.158 74.818 176.776 74.93 176.477 75.154C176.188 75.378 175.959 75.6673 175.791 76.022C175.632 76.3767 175.52 76.7593 175.455 77.17C175.399 77.5807 175.371 77.968 175.371 78.332C175.371 78.7333 175.399 79.1347 175.455 79.536C175.52 79.9373 175.637 80.3013 175.805 80.628C175.973 80.9453 176.211 81.202 176.519 81.398C176.836 81.594 177.242 81.692 177.737 81.692C178.222 81.692 178.61 81.5893 178.899 81.384C179.198 81.1787 179.422 80.908 179.571 80.572C179.73 80.236 179.832 79.872 179.879 79.48C179.935 79.0787 179.963 78.6867 179.963 78.304ZM181.405 78.346C181.405 79.046 181.237 79.676 180.901 80.236C180.574 80.796 180.126 81.2393 179.557 81.566C178.997 81.8927 178.367 82.056 177.667 82.056C176.986 82.056 176.37 81.8927 175.819 81.566C175.268 81.23 174.83 80.7867 174.503 80.236C174.176 79.676 174.013 79.0553 174.013 78.374C174.013 77.674 174.172 77.03 174.489 76.442C174.806 75.8447 175.24 75.364 175.791 75C176.351 74.636 176.995 74.454 177.723 74.454C178.507 74.454 179.174 74.622 179.725 74.958C180.276 75.2847 180.691 75.742 180.971 76.33C181.26 76.9087 181.405 77.5807 181.405 78.346ZM193.965 73.74C193.965 73.824 193.932 73.894 193.867 73.95C193.811 73.9967 193.745 74.02 193.671 74.02C193.577 74.02 193.517 74.0013 193.489 73.964C193.461 73.9173 193.433 73.8567 193.405 73.782C193.246 73.278 193.003 72.9047 192.677 72.662C192.35 72.4193 191.916 72.298 191.375 72.298H188.827V76.512C189.256 76.5027 189.685 76.498 190.115 76.498C190.544 76.4887 190.973 76.4653 191.403 76.428C191.683 76.4093 191.958 76.3767 192.229 76.33C192.499 76.2833 192.77 76.2367 193.041 76.19H193.069C193.087 76.19 193.106 76.1993 193.125 76.218C193.153 76.2273 193.167 76.2413 193.167 76.26C193.167 76.3253 193.134 76.442 193.069 76.61C193.003 76.7687 192.957 76.8807 192.929 76.946C192.882 77.058 192.812 77.114 192.719 77.114C192.653 77.114 192.583 77.114 192.509 77.114C192.443 77.1047 192.373 77.0953 192.299 77.086C191.972 77.0487 191.641 77.03 191.305 77.03C190.978 77.0207 190.651 77.016 190.325 77.016C190.203 77.016 190.059 77.016 189.891 77.016C189.723 77.016 189.555 77.03 189.387 77.058C189.228 77.086 189.093 77.1467 188.981 77.24C188.878 77.324 188.827 77.4547 188.827 77.632V80.796C188.827 80.8987 188.85 80.9967 188.897 81.09C188.953 81.174 189.018 81.2533 189.093 81.328C189.233 81.4493 189.405 81.524 189.611 81.552C189.825 81.5707 190.021 81.58 190.199 81.58C190.329 81.58 190.395 81.65 190.395 81.79C190.395 81.9393 190.311 82.014 190.143 82.014C189.993 82.014 189.839 82.0093 189.681 82C189.522 81.9813 189.363 81.972 189.205 81.972C189.018 81.972 188.827 81.972 188.631 81.972C188.444 81.9627 188.257 81.958 188.071 81.958C187.753 81.958 187.436 81.972 187.119 82C186.811 82.0187 186.493 82.028 186.167 82.028C186.129 82.028 186.087 82.014 186.041 81.986C186.003 81.9487 185.985 81.9067 185.985 81.86C185.985 81.7947 185.989 81.7433 185.999 81.706C186.017 81.6593 186.064 81.6313 186.139 81.622C186.213 81.6033 186.293 81.594 186.377 81.594C186.461 81.5847 186.54 81.5753 186.615 81.566C186.96 81.4913 187.175 81.356 187.259 81.16C187.352 80.9547 187.399 80.6933 187.399 80.376V72.886C187.399 72.6713 187.324 72.5313 187.175 72.466C187.025 72.4007 186.848 72.368 186.643 72.368C186.447 72.368 186.279 72.368 186.139 72.368C185.961 72.368 185.873 72.2887 185.873 72.13C185.873 72.0553 185.882 71.99 185.901 71.934C185.929 71.878 185.985 71.85 186.069 71.85C186.237 71.85 186.405 71.8547 186.573 71.864C186.75 71.8733 186.923 71.878 187.091 71.878H189.555C190.021 71.878 190.488 71.8733 190.955 71.864C191.431 71.8453 191.902 71.836 192.369 71.836C192.798 71.836 193.227 71.822 193.657 71.794C193.703 72.074 193.764 72.4007 193.839 72.774C193.923 73.1473 193.965 73.4693 193.965 73.74ZM199.164 80.362C199.126 79.942 199.103 79.522 199.094 79.102C199.094 78.6727 199.089 78.2433 199.08 77.814H198.884C198.594 77.814 198.272 77.8607 197.918 77.954C197.572 78.038 197.241 78.1687 196.924 78.346C196.606 78.5233 196.345 78.7473 196.14 79.018C195.944 79.2793 195.846 79.5827 195.846 79.928C195.846 80.376 195.972 80.7167 196.224 80.95C196.476 81.174 196.816 81.286 197.246 81.286C197.451 81.286 197.675 81.2393 197.918 81.146C198.16 81.0433 198.394 80.922 198.618 80.782C198.842 80.642 199.024 80.502 199.164 80.362ZM201.614 81.258C201.614 81.2953 201.609 81.3233 201.6 81.342C201.506 81.5473 201.348 81.706 201.124 81.818C200.909 81.9207 200.694 81.972 200.48 81.972C200.088 81.972 199.803 81.86 199.626 81.636C199.458 81.4027 199.322 81.118 199.22 80.782C198.865 81.1087 198.473 81.384 198.044 81.608C197.614 81.8227 197.152 81.93 196.658 81.93C196.312 81.93 195.986 81.8647 195.678 81.734C195.379 81.594 195.136 81.3933 194.95 81.132C194.763 80.8707 194.67 80.5533 194.67 80.18C194.67 79.788 194.768 79.452 194.964 79.172C195.169 78.8827 195.426 78.64 195.734 78.444C196.051 78.2387 196.387 78.0753 196.742 77.954C197.106 77.8233 197.446 77.7253 197.764 77.66C197.978 77.6133 198.198 77.5713 198.422 77.534C198.646 77.4967 198.865 77.4593 199.08 77.422C199.08 77.1607 199.066 76.8573 199.038 76.512C199.019 76.1667 198.949 75.882 198.828 75.658C198.706 75.4433 198.543 75.252 198.338 75.084C198.132 74.916 197.904 74.832 197.652 74.832C197.222 74.832 196.886 74.944 196.644 75.168C196.401 75.392 196.228 75.7093 196.126 76.12C196.116 76.1667 196.107 76.218 196.098 76.274C196.098 76.3207 196.093 76.3673 196.084 76.414C196.074 76.47 196.037 76.5213 195.972 76.568C195.916 76.6053 195.855 76.624 195.79 76.624C195.612 76.624 195.449 76.582 195.3 76.498C195.16 76.414 195.09 76.274 195.09 76.078C195.09 75.966 195.108 75.868 195.146 75.784C195.267 75.4947 195.463 75.2567 195.734 75.07C196.004 74.874 196.303 74.7247 196.63 74.622C196.966 74.5193 197.278 74.468 197.568 74.468C198.072 74.468 198.529 74.5613 198.94 74.748C199.35 74.9347 199.677 75.21 199.92 75.574C200.172 75.9287 200.298 76.3767 200.298 76.918C200.298 77.5247 200.293 78.136 200.284 78.752C200.284 79.368 200.302 79.984 200.34 80.6C200.349 80.8053 200.391 80.9873 200.466 81.146C200.54 81.2953 200.694 81.37 200.928 81.37C201.049 81.37 201.175 81.342 201.306 81.286C201.446 81.2207 201.534 81.188 201.572 81.188C201.6 81.188 201.614 81.2113 201.614 81.258ZM207.801 75.77C207.801 75.8633 207.764 75.952 207.689 76.036C207.624 76.1107 207.54 76.148 207.437 76.148C207.297 76.148 207.194 76.1013 207.129 76.008C207.073 75.9147 207.022 75.8073 206.975 75.686C206.938 75.5647 206.877 75.4573 206.793 75.364C206.709 75.2707 206.569 75.224 206.373 75.224C206.336 75.224 206.298 75.224 206.261 75.224C206.233 75.224 206.2 75.2287 206.163 75.238C206.004 75.266 205.832 75.364 205.645 75.532C205.458 75.7 205.276 75.9007 205.099 76.134C204.931 76.358 204.791 76.582 204.679 76.806C204.567 77.03 204.506 77.2167 204.497 77.366C204.488 77.5153 204.483 77.6647 204.483 77.814C204.483 77.954 204.483 78.094 204.483 78.234C204.483 78.738 204.483 79.242 204.483 79.746C204.492 80.25 204.497 80.7493 204.497 81.244C204.497 81.384 204.553 81.4867 204.665 81.552C204.786 81.608 204.908 81.636 205.029 81.636C205.122 81.636 205.216 81.6313 205.309 81.622C205.402 81.6127 205.496 81.608 205.589 81.608C205.636 81.608 205.668 81.6313 205.687 81.678C205.706 81.7153 205.715 81.7527 205.715 81.79C205.715 81.9393 205.64 82.014 205.491 82.014C205.211 82.014 204.931 82.0093 204.651 82C204.371 81.9813 204.091 81.972 203.811 81.972C203.522 81.972 203.228 81.9813 202.929 82C202.64 82.0187 202.346 82.028 202.047 82.028C202.01 82.028 201.982 82 201.963 81.944C201.954 81.888 201.949 81.8413 201.949 81.804C201.949 81.7107 201.986 81.6593 202.061 81.65C202.164 81.6313 202.271 81.6267 202.383 81.636C202.495 81.6453 202.598 81.65 202.691 81.65C202.831 81.65 202.943 81.622 203.027 81.566C203.12 81.5007 203.172 81.3933 203.181 81.244C203.2 80.9453 203.209 80.642 203.209 80.334C203.218 80.026 203.223 79.718 203.223 79.41V78.052C203.214 77.6507 203.209 77.254 203.209 76.862C203.218 76.4607 203.204 76.064 203.167 75.672C203.158 75.4853 203.106 75.3547 203.013 75.28C202.92 75.196 202.78 75.154 202.593 75.154C202.518 75.154 202.439 75.1633 202.355 75.182C202.28 75.1913 202.201 75.196 202.117 75.196C202.042 75.196 202.005 75.14 202.005 75.028C202.005 74.9627 202.038 74.916 202.103 74.888C202.196 74.86 202.294 74.8413 202.397 74.832C202.5 74.8133 202.598 74.7993 202.691 74.79C202.943 74.7433 203.195 74.6967 203.447 74.65C203.699 74.6033 203.951 74.5473 204.203 74.482C204.287 74.51 204.348 74.5613 204.385 74.636C204.404 74.6733 204.418 74.776 204.427 74.944C204.436 75.112 204.441 75.308 204.441 75.532C204.441 75.7467 204.441 75.952 204.441 76.148C204.441 76.3347 204.441 76.4653 204.441 76.54C204.646 76.2133 204.88 75.8867 205.141 75.56C205.402 75.2333 205.701 74.9627 206.037 74.748C206.373 74.5333 206.751 74.426 207.171 74.426C207.395 74.426 207.54 74.496 207.605 74.636C207.67 74.776 207.712 74.9393 207.731 75.126C207.75 75.2287 207.764 75.336 207.773 75.448C207.792 75.56 207.801 75.6673 207.801 75.77ZM220.686 81.818C220.686 81.9487 220.634 82.014 220.532 82.014C220.27 82.014 220.004 82.0047 219.734 81.986C219.463 81.9673 219.192 81.958 218.922 81.958C218.651 81.958 218.376 81.9673 218.096 81.986C217.825 82.0047 217.554 82.014 217.284 82.014C217.246 82.014 217.218 81.9907 217.2 81.944C217.19 81.8973 217.186 81.86 217.186 81.832C217.186 81.748 217.228 81.6967 217.312 81.678C217.405 81.6593 217.503 81.6547 217.606 81.664C217.718 81.6733 217.802 81.678 217.858 81.678C217.988 81.678 218.096 81.6453 218.18 81.58C218.264 81.5147 218.306 81.4167 218.306 81.286C218.306 80.6607 218.31 80.04 218.32 79.424C218.338 78.808 218.348 78.192 218.348 77.576C218.348 77.4733 218.348 77.3707 218.348 77.268C218.348 77.1653 218.343 77.0627 218.334 76.96C218.324 76.736 218.31 76.5073 218.292 76.274C218.282 76.0313 218.245 75.8073 218.18 75.602C218.114 75.3873 218.002 75.2147 217.844 75.084C217.685 74.9533 217.456 74.888 217.158 74.888C216.943 74.888 216.705 74.9533 216.444 75.084C216.192 75.2053 215.949 75.35 215.716 75.518C215.482 75.686 215.286 75.8447 215.128 75.994C215.146 76.1247 215.156 76.26 215.156 76.4C215.156 76.5307 215.156 76.6613 215.156 76.792C215.156 77.0627 215.156 77.338 215.156 77.618C215.165 77.8887 215.17 78.1593 215.17 78.43C215.17 78.906 215.165 79.382 215.156 79.858C215.156 80.334 215.156 80.81 215.156 81.286C215.156 81.426 215.216 81.524 215.338 81.58C215.459 81.636 215.58 81.664 215.702 81.664C215.776 81.664 215.851 81.6593 215.926 81.65C216.01 81.6407 216.084 81.636 216.15 81.636C216.196 81.636 216.224 81.6593 216.234 81.706C216.252 81.7527 216.262 81.79 216.262 81.818C216.262 81.8647 216.248 81.9113 216.22 81.958C216.192 81.9953 216.15 82.014 216.094 82.014C215.832 82.014 215.566 82.0047 215.296 81.986C215.034 81.9673 214.768 81.958 214.498 81.958C214.236 81.958 213.97 81.9673 213.7 81.986C213.429 82.0047 213.158 82.014 212.888 82.014C212.85 82.014 212.822 81.9907 212.804 81.944C212.785 81.8973 212.776 81.86 212.776 81.832C212.776 81.7573 212.813 81.706 212.888 81.678C212.962 81.6593 213.051 81.6547 213.154 81.664C213.266 81.6733 213.359 81.678 213.434 81.678C213.564 81.678 213.672 81.65 213.756 81.594C213.849 81.5287 213.896 81.426 213.896 81.286V77.716C213.896 77.52 213.891 77.2773 213.882 76.988C213.882 76.6987 213.863 76.414 213.826 76.134C213.798 75.8447 213.746 75.616 213.672 75.448C213.606 75.28 213.494 75.1493 213.336 75.056C213.186 74.9627 213.018 74.916 212.832 74.916C212.589 74.916 212.342 74.9767 212.09 75.098C211.838 75.2193 211.6 75.3687 211.376 75.546C211.152 75.7233 210.96 75.9007 210.802 76.078V81.272C210.802 81.412 210.853 81.5147 210.956 81.58C211.058 81.636 211.17 81.664 211.292 81.664C211.366 81.664 211.441 81.6593 211.516 81.65C211.59 81.6313 211.66 81.622 211.726 81.622C211.763 81.622 211.786 81.65 211.796 81.706C211.805 81.7527 211.81 81.7853 211.81 81.804C211.81 81.8507 211.796 81.8973 211.768 81.944C211.749 81.9813 211.712 82 211.656 82C211.478 82 211.301 81.9953 211.124 81.986C210.946 81.9673 210.769 81.958 210.592 81.958C210.237 81.958 209.882 81.9673 209.528 81.986C209.173 81.9953 208.818 82 208.464 82C208.426 82 208.398 81.9767 208.38 81.93C208.361 81.8833 208.352 81.846 208.352 81.818C208.352 81.706 208.398 81.65 208.492 81.65C208.594 81.65 208.692 81.6547 208.786 81.664C208.879 81.664 208.972 81.664 209.066 81.664C209.196 81.664 209.308 81.636 209.402 81.58C209.495 81.5147 209.542 81.412 209.542 81.272C209.542 80.3293 209.537 79.3867 209.528 78.444C209.528 77.492 209.528 76.5447 209.528 75.602C209.528 75.4993 209.518 75.3967 209.5 75.294C209.481 75.1913 209.42 75.1213 209.318 75.084C209.252 75.056 209.182 75.042 209.108 75.042C208.986 75.042 208.865 75.0607 208.744 75.098C208.622 75.126 208.496 75.14 208.366 75.14C208.282 75.14 208.24 75.084 208.24 74.972C208.24 74.8973 208.268 74.8507 208.324 74.832C208.37 74.8133 208.422 74.804 208.478 74.804C208.543 74.7947 208.604 74.7853 208.66 74.776C208.874 74.748 209.089 74.7153 209.304 74.678C209.528 74.6313 209.742 74.5847 209.948 74.538C210.022 74.5193 210.102 74.5007 210.186 74.482C210.27 74.4633 210.354 74.454 210.438 74.454C210.55 74.454 210.624 74.538 210.662 74.706C210.708 74.8647 210.732 75.0373 210.732 75.224C210.741 75.4107 210.746 75.546 210.746 75.63C210.942 75.462 211.161 75.2893 211.404 75.112C211.646 74.9253 211.903 74.7667 212.174 74.636C212.444 74.5053 212.715 74.44 212.986 74.44C213.462 74.44 213.863 74.5193 214.19 74.678C214.516 74.8367 214.796 75.1353 215.03 75.574C215.235 75.3967 215.468 75.2193 215.73 75.042C215.991 74.8553 216.262 74.7013 216.542 74.58C216.831 74.4493 217.116 74.384 217.396 74.384C218.012 74.384 218.478 74.4727 218.796 74.65C219.122 74.8273 219.342 75.1027 219.454 75.476C219.575 75.84 219.636 76.3113 219.636 76.89C219.636 77.618 219.631 78.3507 219.622 79.088C219.612 79.816 219.608 80.5487 219.608 81.286C219.608 81.426 219.668 81.524 219.79 81.58C219.92 81.636 220.046 81.664 220.168 81.664C220.242 81.664 220.312 81.6593 220.378 81.65C220.452 81.6407 220.522 81.636 220.588 81.636C220.625 81.636 220.648 81.6593 220.658 81.706C220.676 81.7527 220.686 81.79 220.686 81.818Z" fill="#4E301B"/>
</svg>
